<svg width="73" height="66" viewBox="0 0 73 66" fill="none" xmlns="http://www.w3.org/2000/svg">
<path d="M32.7567 51.8232L58.7027 26.1174L65.5 39L58.0087 58.6611C56.5528 62.4824 52.9169 65.0322 48.8282 65.0993L30.5391 65.3995L40.7401 59.2265L32.7567 51.8232Z" fill="#571E3F"/>
<path d="M3 28L33.6755 51.7112L38.1298 53.9777C41.9664 55.9299 41.7069 61.4953 37.7052 63.082L31.8697 65.3958H31.2246C28.6852 65.3958 26.5431 63.4887 25.9239 61.026C24.8513 56.7598 22.5771 50.6407 18.1205 48.7385C13.479 46.7573 5.03661 48.7385 5.03661 48.7385L3 28Z" fill="#652952"/>
<path d="M17.4019 10.2588C18.7436 9.06296 20.3828 8.25078 22.147 7.90774L56.6517 1.19861C59.2442 0.694535 61.9308 1.23645 64.1251 2.70608L65.5243 3.64318C69.6347 6.39612 71.0933 11.7363 69.3688 16.3732C68.1513 19.6468 66.9507 23.3983 66.465 26.5287C66.0816 28.9997 65.9961 32.0343 66.035 34.8214C66.1012 39.5767 63.1977 43.9832 58.6514 45.3787L39.3252 51.3105C36.5614 52.1588 33.5657 51.7695 31.1105 50.2429L7.96529 35.8513C2.29423 32.325 1.60679 24.3374 6.59194 19.894L17.4019 10.2588Z" fill="#B05BB8"/>
</svg>
