<svg width="78" height="71" viewBox="0 0 78 71" fill="none" xmlns="http://www.w3.org/2000/svg">
<path d="M40.5 47.1346C40.5 47.1346 47.2331 42.4994 52.4545 39.1844C57.676 35.8694 75.1685 32.6613 75.1685 32.6613L73.1838 47.1346L48.0441 64.8694L40.5 47.1346Z" fill="#46133C"/>
<path d="M1 35.5L14.9659 43.0576L41 47.95L48.265 64.6657H31.9462L24.0074 49.7847L16.7301 47.95L8.79121 56.3078L1 35.5Z" fill="#69305B"/>
<path d="M0.631836 22.0558C0.631836 18.3048 2.73104 14.8692 6.06882 13.1576L27.4643 2.18603C29.6413 1.06966 32.152 0.790106 34.5213 1.40029L67.6629 9.93559C72.081 11.0734 75.1689 15.0573 75.1689 19.6196V32.6613C75.1689 32.6613 58.3758 35.7229 52.6754 39.1845C49.9725 40.8258 47.0563 43.4773 44.7368 45.8118C41.9463 48.6204 37.8718 49.8942 34.0669 48.8L7.868 41.2655C3.58328 40.0333 0.631836 36.1134 0.631836 31.655V22.0558Z" fill="#CD70C7"/>
<path d="M19.3762 47.1346C24.2277 47.1346 28.6382 56.7155 28.6382 56.7155L31.946 64.258H48.4853C48.4853 64.258 33.4897 70.6196 31.946 70.1696C30.4023 69.7196 22.243 59.9771 22.243 59.9771L8.79102 56.3079C8.79102 56.3079 14.5246 47.1346 19.3762 47.1346Z" fill="#5C1849"/>
<path d="M65.0248 59.5694L71.5 51.5L66.348 65.2772L59.5117 65.8888L65.0248 59.5694Z" fill="#491344"/>
<path d="M22.2432 48.1538C22.2432 48.1538 24.9152 49.9615 26.6536 52.8423C28.3921 55.7231 31.9462 64.0541 31.9462 64.0541L22.2432 59.9771V48.1538Z" fill="#521D49"/>
<path d="M47.1621 54.4731L65.2451 59.3655L59.5114 65.8887L48.0442 64.8695L47.1621 54.4731Z" fill="#71345A"/>
<path d="M47.3287 51.0535C47.7674 49.0261 49.3125 47.4197 51.3213 46.9026L61.2255 44.353C63.8549 43.6761 66.6749 44.461 68.6024 46.3732V46.3732C71.7544 49.5001 71.6198 54.7046 68.2481 57.5932V57.5932C66.49 59.0995 64.1425 59.7204 61.8655 59.3018C60.1549 58.9874 58.1188 58.6226 56.4242 58.3463C55.1678 58.1415 53.5716 57.9115 52.0105 57.6969C48.8171 57.258 46.6471 54.204 47.3287 51.0535V51.0535Z" fill="#B792FC"/>
</svg>
