<svg width="46" height="43" viewBox="0 0 46 43" fill="none" xmlns="http://www.w3.org/2000/svg">
<path d="M23.3232 32.2987L41 18.5V26.1324C41 28.9171 39.8388 31.5757 37.7961 33.4682L37.5809 33.6676C36.9824 34.222 36.3184 34.7011 35.6036 35.0942L23.3232 41.8477V32.2987Z" fill="#451734"/>
<path d="M0.6875 19.8115L23.5862 30.8296L23.3234 41.8477L4.62829 35.9714L0.6875 21.7703V19.8115Z" fill="#60264E"/>
<path d="M6.73017 7.81398L18.856 4.05812C20.1959 3.64309 21.6485 3.80999 22.8594 4.51809L39.0367 13.9784C41.924 15.6668 42.3633 19.6509 39.8142 21.8163C38.0975 23.2746 36.2015 24.8073 34.5784 25.9326C30.3719 28.849 23.2815 32.2986 23.2815 32.2986C23.2815 32.2986 8.30645 28.381 1.47579 22.2599C-3.25336 18.0221 6.73017 7.81398 6.73017 7.81398Z" fill="#A670E0"/>
</svg>
