<svg width="137" height="125" viewBox="0 0 137 125" fill="none" xmlns="http://www.w3.org/2000/svg">
<path d="M1 41.5L22 82.5L33.5 111.5L20.5 96.5L4.97792 73.6734C4.00909 72.2487 3.42481 70.5978 3.28173 68.8808L1 41.5Z" fill="#33001D"/>
<path d="M18.5 76L91 83L97 96.5L78 124L33.5 111.5C33.5 111.5 22.3338 91.8981 21 87.5C19.6662 83.1019 18.5 76 18.5 76Z" fill="#591A35"/>
<path d="M91 83.5L133.5 43.5L127.191 65.8247C127.064 66.2727 126.876 66.7008 126.631 67.0967L114.296 87.0214C114.099 87.3395 113.867 87.6344 113.605 87.9007L78 124L97 96.5L91 83.5Z" fill="#370522"/>
<path d="M39.5 113L91 83C91 83 96.8009 91.0128 97.5 97C97.9882 101.181 88.5283 113.666 82.7767 120.817C80.2271 123.987 75.976 125.159 72.1165 123.872L39.5 113Z" fill="#4C152C"/>
<path d="M35.4178 0.566009C35.7911 0.203055 36.2913 0 36.812 0H90.2388C90.7291 0 91.2023 0.180101 91.5686 0.506087L132.452 36.8965C134.633 38.8379 134.693 42.2275 132.582 44.2453L94.2645 80.879C92.1891 82.8632 89.3609 83.8595 86.5001 83.6143L24.774 78.3235C22.3423 78.1151 20.072 77.0322 18.4469 75.2112C14.7813 71.1037 8.17469 63.2887 5.5 57.5C3.11801 52.3448 1.55909 44.7942 0.728624 39.8879C0.208602 36.8156 1.31066 33.7257 3.54479 31.5537L35.4178 0.566009Z" fill="#C768AC"/>
</svg>
