<svg width="80" height="78" viewBox="0 0 80 78" fill="none" xmlns="http://www.w3.org/2000/svg">
<path d="M61.3271 38.0567C61.3271 38.0567 64.2034 26.4503 69.3862 23.391C70.9587 22.4628 73.8017 19.8105 74.5 14.2704C75.1983 8.73031 73.514 43.9972 73.514 43.9972L66.8309 53.8362L61.3271 38.0567Z" fill="#3B0B24"/>
<path d="M12.1865 38.7991L40.8845 33.0442L46.1917 38.0565L45.7985 47.5242L40.2948 69.8011L23.7837 61.2617L12.1865 38.7991Z" fill="#3E122D"/>
<path d="M5 25.2704L12.3834 38.9847L23.784 61.2616L40.2952 69.8011L35.5777 77.5981C35.5777 77.5981 27.1196 73.0097 22.0149 69.0586C16.9103 65.1074 9.435 57.3632 9.435 57.3632L5 25.2704Z" fill="#5C1F41"/>
<path d="M46.1915 38.0565H61.3267L66.8304 53.836L61.5233 67.2022L35.5771 77.5981L40.2946 69.8012L46.1915 38.0565Z" fill="#5C1F41"/>
<path d="M32.6502 2.61631C35.0099 0.953852 37.973 0.39218 40.7774 1.07571L68.3548 7.79706C74.0766 9.19161 77.2078 15.282 73.3374 19.7209C72.0712 21.1731 70.5663 22.6282 68.7965 23.9477C63.8792 27.6141 61.3272 38.0565 61.3272 38.0565H46.192L40.8848 33.0441L12.1868 38.9847L7.64125 33.9992C3.58544 29.5509 4.35039 22.5536 9.2715 19.0867L32.6502 2.61631Z" fill="#6B2D44"/>
</svg>
