<svg width="81" height="68" viewBox="0 0 81 68" fill="none" xmlns="http://www.w3.org/2000/svg">
<path d="M31.2031 63.0797L25.6221 58.739L51.547 49.5567L61.0888 45.5499L67.39 32.1939L79.9924 23.5125L79.0922 30.3574L43.4455 67.5874L31.2031 63.0797Z" fill="#440F1F"/>
<path d="M13.1992 50.7254L47.9458 32.1938H67.2095V39.8736L60.5482 46.7185L50.6463 50.7254L37.6839 62.2449H30.8426L13.1992 50.7254Z" fill="#511C38"/>
<path d="M10.8775 14.2481C13.6491 10.2141 17.8036 7.33631 22.5545 6.15981L29.838 4.35612C40.8605 1.62654 52.4838 2.7302 62.7955 7.48554L80.1721 15.4989L65.9494 23.8464L47.9934 32.4861C47.2446 32.8464 46.5435 33.2987 45.9066 33.8324L37.1447 41.1744C33.9943 43.8142 29.5495 44.2575 25.9398 42.2919L0.957031 28.6879L10.8775 14.2481Z" fill="#B290FE"/>
<path d="M46.8662 32.3608L79.9925 15.4988V23.6794L67.3901 32.3608H46.8662Z" fill="#B290FE"/>
<path d="M0.957031 28.688L32.283 44.9922L35.3436 53.6736L32.283 59.5169L23.4613 50.8354H13.1994L0.957031 28.688Z" fill="#5C224B"/>
<path d="M48.126 32.3608H67.0296V40.3745L60.3683 47.2194L54.6072 48.3881L48.126 32.3608Z" fill="#6C2F50"/>
</svg>
