<svg width="72" height="74" viewBox="0 0 72 74" fill="none" xmlns="http://www.w3.org/2000/svg">
<path d="M21.9317 1.7318C21.9317 1.7318 41.2404 -0.275104 54.2527 1.7318C63.7316 3.19374 70.2034 16.7835 70.2034 16.7835C70.2034 16.7835 65.1935 21.8184 63.6972 25.6472C62.3777 29.0235 63.8794 31.6679 64.3136 34.5683C64.7577 37.5344 62.0168 39.6384 59.0888 40.2877C46.8731 42.9966 31.8372 45.0049 25.2677 45.8191C23.1026 46.0875 20.9173 45.6135 19.043 44.4969L0.314453 33.3403L14.1663 8.92315L21.9317 1.7318Z" fill="#943989"/>
<path d="M63.6967 25.6472C65.2086 21.8223 70.2029 16.7834 70.2029 16.7834L71.2523 27.8213L63 39C63 39 61.653 30.8176 63.6967 25.6472Z" fill="#2B141E"/>
<path d="M53.8328 41.1337L61.3884 39.8627L58.4501 53.5095L41.2402 69.7987L41.66 55.6836L53.8328 41.1337Z" fill="#441E2E"/>
<path d="M21.5117 65.116H41.45L41.2401 69.7987L40.8204 71.4711L40.4006 72.9763L34.3142 72.3073L28.2278 70.4677L21.5117 65.116Z" fill="#441E2E"/>
<path d="M39.981 53.0747L35.3637 44.0437L46.0674 42.3713L39.981 53.0747Z" fill="#441E2E"/>
<path d="M60 40L63.5 38L62.4377 52.7402L58.0303 53.9109L60 40Z" fill="#441E2E"/>
<path d="M57.8211 53.9109L62.4384 52.7402L40.4014 72.9763L41.2409 69.7988L57.8211 53.9109Z" fill="#441E2E"/>
<path d="M18.4074 43.7092L23.2346 45.5489L22.3951 64.7815C22.3951 64.7815 19.0282 57.3924 16.9383 55.9178C15.0831 54.6088 9.17283 55.9178 9.17283 55.9178L18.4074 43.7092Z" fill="#441E2E"/>
<path d="M0.297852 33.2567L18.3643 43.8765L9.12973 56.0851L1.57417 43.8765L0.297852 38.692V33.2567Z" fill="#611F3B"/>
<path d="M22.1414 46.2177L35.3637 44.0436L37.8822 48.8936L39.9809 53.0746L46.0674 42.3712L43.7587 53.0746L41.0303 66.6211L34.5242 66.1194L21.7217 65.2832L22.1414 46.2177Z" fill="#611F3B"/>
<path d="M43.1204 54.4001L44.1698 49.7174L46.0673 42.3713L48.3673 42.0368L53.8327 41.0334L43.1204 54.4001Z" fill="#611F3B"/>
</svg>
