<svg width="97" height="80" viewBox="0 0 97 80" fill="none" xmlns="http://www.w3.org/2000/svg">
<path d="M4.5 21L70.5 35L56 58L36.7985 76.7748C34.9354 78.5965 31.9857 78.682 30.0202 76.9713L6.5 56.5L4.5 21Z" fill="#4B102E"/>
<path d="M30.0001 59.5C28.0001 57.5 80 31 80 31L71.5001 51.5C71.5001 51.5 64.0449 63.5 62.0001 65.5C59.9553 67.5 35.5002 80 35.5002 77.5C35.5002 75.5749 49.1382 63.5696 55.4106 58.1498C56.2022 57.4658 55.5423 56.1493 54.5189 56.3659C47.042 57.9487 31.5128 61.0127 30.0001 59.5Z" fill="#350724"/>
<path d="M37.9939 0.959137C39.6201 0.336752 41.4055 0.260547 43.0672 0.780692C47.8574 2.28006 58.2794 5.74821 65 9.5C70.3964 12.5125 77.6351 18.4252 82.5398 22.6522C85.2032 24.9476 84.5923 29.1602 81.4313 30.7001L34.936 53.3517C31.7197 54.9186 27.8568 54.1621 25.5527 51.4251C22.3154 47.5798 17.7526 41.9364 14.5 37C11.8831 33.0283 8.52807 28.0481 5.7045 23.8812C2.8039 19.6006 4.63967 13.7243 9.46884 11.8761L37.9939 0.959137Z" fill="#D383C9"/>
</svg>
