<svg width="39" height="40" viewBox="0 0 39 40" fill="none" xmlns="http://www.w3.org/2000/svg">
<path d="M20.1249 0.167969L38.3336 10.617C38.3336 10.617 33.5768 19.0246 30.2408 22.7051C26.9048 26.3857 21.2489 29.4663 21.2489 29.4663C21.2489 29.4663 7.97765 24.9455 3.93934 22.7051C-0.098965 20.4648 0.567391 17.9928 0.567391 17.9928C0.567391 17.9928 2.56292 11.8715 6.41215 8.3633C10.2614 4.85507 20.1249 0.167969 20.1249 0.167969Z" fill="#9555C5"/>
<path d="M0.567383 18.6074C0.567383 18.6074 1.84889 21.9536 5.96255 23.7295C10.2337 25.5735 21.2489 29.4662 21.2489 29.4662L22.1481 38.686C22.1481 38.686 18.0809 40.1402 15.6289 39.7104C9.78413 38.686 1.91617 33.7688 1.91617 33.7688L0.567383 18.6074Z" fill="#6A263D"/>
<path d="M21.249 29.4663C21.249 29.4663 28.4426 24.9589 30.9154 21.8857C33.9108 18.1629 38.3337 10.6171 38.3337 10.6171C38.3337 10.6171 38.8685 16.4666 38.3337 19.4271C37.799 22.3875 35.5951 25.7784 35.5951 25.7784L22.1482 38.6861L21.249 29.4663Z" fill="#481526"/>
</svg>
