<svg width="46" height="42" viewBox="0 0 46 42" fill="none" xmlns="http://www.w3.org/2000/svg">
<path d="M21.5544 2.65403C23.9097 1.21391 26.7556 0.811573 29.4179 1.54233L40.0104 4.44988C42.6089 5.16313 44.1747 7.80719 43.5512 10.4286L42.3383 15.5272L27.4211 25.0376L19.4963 25.3258L19.8071 26.7668L19.4963 28.9282H8.77085C7.35416 28.9282 5.96857 28.5128 4.78558 27.7333L4.12082 27.2953C2.05102 25.9315 1.01911 23.4457 1.51459 21.017V21.017C1.68498 20.1819 2.1989 19.4569 2.93057 19.0197L8.77452 15.5272L10.51 10.6992C10.8953 9.62725 11.6351 8.71897 12.607 8.12475L21.5544 2.65403Z" fill="#663143"/>
<path d="M38.7619 17.5457C38.7619 17.5457 40.866 16.1476 41.8696 14.952C43.0907 13.4974 43.4235 10.9173 43.4235 10.9173V7.5L45.9097 12.0701L44.822 18.4103L40.3158 30.3703L29.2832 41.3217L33.3233 33.2523L34.8772 28.353L37.5188 26.1915L40.3158 23.5978L38.7619 17.5457Z" fill="#2F0C24"/>
<path d="M18.7537 25.3472C18.4465 23.9227 19.717 22.6584 21.14 22.9726L27.8861 24.4621L27.42 29.7937L26.1769 34.9812L25.2445 37.2867L23.5353 31.9551L19.4952 28.785L18.7537 25.3472Z" fill="#3D1027"/>
<path d="M18.252 22.8751L20.0459 24.4314C21.9865 26.1149 23.2047 28.4805 23.4481 31.038L23.5351 31.9532L22.292 31.2327L19.4951 28.7831L18.252 22.8751Z" fill="#2D0015"/>
<path d="M26.5004 30.9715C25.8506 26.5272 28.2437 22.1949 32.3518 20.3787L38.7643 17.5437L40.4735 23.4517L37.832 26.0454L36.2781 27.3423L34.8796 28.351C34.8796 28.351 34.3747 30.4879 33.9472 31.8093C33.4811 33.2502 33.2292 33.6682 32.7041 34.8353C31.5548 37.3902 29.2856 41.1756 29.2856 41.1756L23.3809 39.8787L24.5567 38.0334C25.1161 37.1555 25.535 36.1958 25.7982 35.1887L26.644 31.9534L26.5004 30.9715Z" fill="#46162E"/>
<path d="M2.09364 24.5C2.09364 24.5 4.09989 28 6 28C7.90011 28 19.6528 28.7835 19.6528 28.7835L23.3821 31.5213L24.5977 34.0636C25.4506 35.8472 25.1724 37.9659 23.888 39.4688L23.5375 39.8789L18.4097 33.3946C18.4097 33.3946 16.6413 34.5612 16.8558 35.556C17.0241 36.3364 15.7681 36.997 15.7681 36.997L9.5526 38.2939L5.51251 34.9796L2.09397 30.9449L2.09364 24.5Z" fill="#46162E"/>
</svg>
