<svg width="39" height="32" viewBox="0 0 39 32" fill="none" xmlns="http://www.w3.org/2000/svg">
<path d="M1.5 14.5L14.6544 22.556L13.951 25.3125L5.86206 29.042L3.92773 26.2854L1.5 14.5Z" fill="#6E2F5C"/>
<path d="M5.8623 29.0419C5.8623 29.0419 7.75054 26.4998 9.37925 25.7989C10.2016 25.445 11.3592 25.3245 12.3038 25.2919C13.2606 25.2588 14.1322 24.6453 14.3827 23.7213L14.6547 22.718L23.6229 17.6913L32.5 10L33.5 22.718C33.5 22.718 30.6241 27.7447 27.8432 29.0419C25.0624 30.3391 16.4131 31.9691 14.6547 31.7985C12.8962 31.6278 5.8623 29.0419 5.8623 29.0419Z" fill="#5C2046"/>
<path d="M3.71861 6.88524C4.28951 5.32788 5.59558 4.15501 7.20515 3.75427L19.8527 0.605401C21.3446 0.233974 22.9244 0.569515 24.1365 1.51525L30.1577 6.21328C34.0375 9.24051 33.6411 15.1861 29.2451 17.3981C23.7073 20.1845 17.0825 23.0349 13.9514 22.5559C10.4071 22.0138 6.24404 19.7308 3.47913 17.99C1.61445 16.816 0.929853 14.4927 1.68826 12.4239L3.71861 6.88524Z" fill="#C26DBE"/>
</svg>
