<svg width="75" height="64" viewBox="0 0 75 64" fill="none" xmlns="http://www.w3.org/2000/svg">
<path d="M9.31738 32.6797C9.31738 32.6797 16.5438 34.1617 24.8278 34.8204C33.1118 35.4791 51.266 37.4551 51.266 37.4551L52.6761 40.0899L54.2624 43.3833V50.1348L51.6185 47.5L48.2697 43.8773L47.7409 46.512L46.3309 50.7934L44.3921 56.3922C44.3921 56.3922 27.2829 57.4121 25.0041 54.0869C22.7252 50.7616 23.594 44.0624 23.594 44.0624L9.31738 32.6797Z" fill="#743262"/>
<path d="M32.9355 60.2002L24.299 54.4162L16.3676 50.3199L9.84615 45.3594L9.31738 32.6797L16.5438 38.4432C16.5438 38.4432 21.7708 41.1272 23.594 44.042C24.662 45.7494 24.9626 48.9032 25.0284 51.223C25.0739 52.8259 26.2597 54.2174 27.8547 54.3831L41.0003 55.7492C42.736 55.9296 44.266 54.5982 44.4325 52.8612C44.8043 48.982 45.7819 43.0277 48.2697 43.4038C51.9414 43.9588 54.2624 52.1108 54.2624 48.9821C54.2624 45.8534 54.2624 43.4038 54.2624 43.4038C54.2624 43.4038 50.8139 38.0874 51.4423 37.4552C52.0707 36.8229 54.2624 37.1463 54.2624 37.1463L74.7079 14.9158L73.4741 27.5954L67.6577 39.7606L62.0176 48.0145L46.8597 61.5175L41.2195 63.6582L32.9355 60.2002Z" fill="#571847"/>
<path d="M2 25C2 25 2.85102 28.1897 4.38204 29.3863C5.91307 30.5829 9.31718 32.6797 9.31718 32.6797L9.84594 45.5445L8.25965 44.0624L2 25Z" fill="#6E2B5E"/>
<path d="M51.4424 37.6197L74.3555 14.0718L74.708 15.0598L73.8267 26.4221L67.4816 39.9251C67.4816 39.9251 63.2224 39.6723 60.6076 40.2544C57.9929 40.8365 54.0862 43.2185 54.0862 43.2185C54.0862 43.2185 52.2961 40.7943 51.9711 39.9251C51.6462 39.0558 51.4424 37.6197 51.4424 37.6197Z" fill="#460B41"/>
<path d="M11.7847 6.02342C18.971 0.288478 42.1005 0.91865 42.1005 0.91865L68.715 6.02342L74.3552 14.0923L51.6183 37.4755C51.6183 37.4755 13.1567 34.618 9.31715 32.7C7.9601 32.0222 6.48345 31.0006 5.14126 29.963C2.2633 27.7382 1.25662 23.9231 2.58122 20.5352C4.40821 15.8624 7.52124 9.42585 11.7847 6.02342Z" fill="#CF7BC9"/>
</svg>
