<svg width="61" height="64" viewBox="0 0 61 64" fill="none" xmlns="http://www.w3.org/2000/svg">
<path d="M5 29.5L19.3155 37.3727L29.2844 36.6221L31.7093 41.8764L33.5953 49.6327L29.1257 57.675C27.9087 59.8649 25.2589 60.816 22.9271 59.8999L15.5562 57.0042C13.9643 56.3788 12.8024 54.983 12.4763 53.304L10.6937 44.1282L6.05696 45.859C4.658 46.3811 3.20095 45.2417 3.3705 43.7581L5 29.5Z" fill="#5E2947"/>
<path d="M31.7089 49.3826C32.1937 44.5831 29.5535 37.8732 29.5535 37.8732L47.0664 13.3533L47.9532 42.3813C48.07 46.2053 45.9948 49.7609 42.6078 51.5398L26.5 60C26.5 60 31.2242 54.1821 31.7089 49.3826Z" fill="#47172F"/>
<path d="M19.0457 6.59766L28.1303 2.46558C30.6364 1.32568 33.578 1.7607 35.6469 3.57718L47.0664 13.6034C47.0664 13.6034 47.1224 23.2451 43.2944 29.3662C38.2043 37.5056 22.2972 40.4224 17.1602 41.1661C16.1055 41.3188 15.0473 41.0852 14.128 40.546L9.8953 38.0635C4.72853 35.0331 3.37078 28.1738 6.94265 23.3654C7.77724 22.2419 8.59869 21.13 9.34618 20.1087C13.0288 15.0766 19.0457 6.59766 19.0457 6.59766Z" fill="#B28DF4"/>
<path d="M5.5 46C5.5 46 10.1861 43.1274 11.2319 43.878C12.2777 44.6287 12.5 53.5001 12.5 53.5001C12.5 53.5001 11.6467 49.185 10 48C7.91577 46.5001 5.5 46 5.5 46Z" fill="#4D1538"/>
<path d="M48.6428 51.9676L60.356 42.0227L59.4189 52.6882C59.4189 52.6882 58.8173 54.3631 57.2325 55.7149C55.6476 57.0667 47.0811 61.4801 47.0811 61.4801L47.7058 56.5797L48.6428 51.9676Z" fill="#50103C"/>
<path d="M27.8719 44.4728L27.5596 42.1667L34.5875 51.5351H48.7994C48.7994 51.5351 49.9002 54.9443 49.5803 57.012C49.2605 59.0797 47.0815 61.48 47.0815 61.48L44.1791 62.0981C43.4243 62.2589 42.5914 62.1671 42.2401 61.48V61.48C41.886 60.7877 32.9064 59.7505 31.464 58.5974C30.0215 57.4444 27.8719 44.4728 27.8719 44.4728Z" fill="#6A3352"/>
<path d="M27.5601 40.5814C28.3004 38.2753 46.7696 32.6543 46.7696 32.6543C46.7696 32.6543 57.3881 37.8477 58.3266 38.996C59.2652 40.1442 60.3569 42.1668 60.3569 42.1668C60.3569 42.1668 59.3923 44.7699 58.3266 46.2024C57.6023 47.1761 53.4613 49.4231 50.8829 50.7626C49.5172 51.4721 47.9993 51.8234 46.4602 51.8234H38.9178C36.1552 51.8234 33.4693 50.715 31.7846 48.5255C31.1778 47.7368 30.6026 46.9169 30.215 46.2024C28.9805 43.9263 26.8197 42.8874 27.5601 40.5814Z" fill="#BA99FF"/>
<path d="M42.0835 61.0477C44.1672 61.0995 49.2676 58.7417 49.2676 58.7417C49.2676 58.7417 48.0182 61.1918 46.7688 61.6242C45.5194 62.0566 45.2643 62.4844 43.9576 62.6331C42.6509 62.7819 31.3074 58.7417 31.3074 58.7417L30.8389 57.5886C30.8389 57.5886 34.5004 57.8185 36.6174 58.4534C38.7343 59.0882 39.9999 60.9959 42.0835 61.0477Z" fill="#50103C"/>
</svg>
