<svg width="203" height="169" viewBox="0 0 203 169" fill="none" xmlns="http://www.w3.org/2000/svg">
<path d="M57.0038 1.73916C57.9537 0.635056 59.3377 0 60.7942 0H148.468C149.466 0 150.442 0.298842 151.269 0.858045L198.057 32.4954C200.458 34.1195 200.979 37.4268 199.136 39.6656C194.253 45.599 185.018 56.3854 178 62C169.628 68.6976 160.555 85.5582 157.823 90.8706C157.281 91.9238 156.405 92.7608 155.32 93.2359L90.8983 121.45C89.3962 122.108 87.6669 121.987 86.2706 121.127L4.99187 71.0741C2.37252 69.461 1.81714 65.8878 3.82333 63.5558L57.0038 1.73916Z" fill="#CB5591"/>
<path d="M4 70.5L88 122L82 129.5L72.5 138C72.5 138 36.5 139 28.5 136.5C20.5 134 4 102 4 102V70.5Z" fill="#5E1935"/>
<path d="M87.5 122.5L157 92.5C157 92.5 157.879 112 157 115.5C156.121 119 137.5 140.5 125.5 149C115.874 155.818 105.927 163.602 102.367 166.415C101.477 167.119 100.381 167.5 99.2461 167.5H77.9742C77.0119 167.5 76.07 167.222 75.2616 166.7L28.5 136.5C28.5 136.5 67.1227 139 71 137C78.6237 133.067 87.5 122.5 87.5 122.5Z" fill="#4B0F29"/>
<path d="M157 92C157 92 164.946 74.1865 173.5 65.5C182.054 56.8135 200 39 200 39V73C200 73 184.725 86.5671 177 97C170.715 105.487 166.383 122.337 164.986 128.325C164.664 129.707 163.799 130.908 162.573 131.623L101 167.5C101 167.5 120 153 131.5 143.5C143 134 152.473 123.823 155 115C157.527 106.177 157 92 157 92Z" fill="#3C0C26"/>
</svg>
