<svg width="59" height="60" viewBox="0 0 59 60" fill="none" xmlns="http://www.w3.org/2000/svg">
<path d="M21.5029 1.55054H43.6444C43.6444 1.55054 59.4748 10.5777 58.8432 20.7824C58.3003 29.5537 47.3972 33.9307 47.3972 33.9307L28.4456 42.3691L18.876 37.4631L0.487305 32.3607V20.7824C0.487305 20.7824 10.2691 10.4081 14.3726 6.65286C18.4762 2.89761 21.5029 1.55054 21.5029 1.55054Z" fill="#9D439B"/>
<path d="M0.487305 31.1832L12.8715 34.5194L19.0636 45.3127L12.8715 47.6677L8.18052 49.0414L2.3637 44.724L0.487305 31.1832Z" fill="#622739"/>
<path d="M12.8711 34.5194L18.8756 36.2856L28.4452 41.1917L48.8979 31.9683L44.5822 42.3692L33.6991 49.6302H29.7587L25.8182 55.3212L22.816 52.7701L21.3149 51.2001L20.3767 49.6302L17.9374 45.9015L16.9992 42.3692L12.8711 34.5194Z" fill="#622739"/>
<path d="M18.3132 45.509L20.9402 50.8076L25.8188 55.7137L30.1345 49.2376H33.6996L45.1457 41.9766L58.2804 30.202L42.3311 49.2376L25.8188 59.0498L17.9379 54.7324L8.18066 49.0414L18.3132 45.509Z" fill="#4F1C37"/>
<path d="M48.7111 32.1644C48.7111 32.1644 52.3271 30.155 54.3403 28.0433C56.4001 25.8827 58.4683 22.0222 58.4683 22.0222V30.8532L44.583 42.4315L48.7111 32.1644Z" fill="#4F1C37"/>
<path d="M13.6221 34.7156L18.6883 36.2855L28.4456 41.1916L30.1343 49.4338L26.0063 55.9099L21.1277 51.2L18.1254 45.7052L13.6221 34.7156Z" fill="#4F1C37"/>
</svg>
