<svg width="42" height="35" viewBox="0 0 42 35" fill="none" xmlns="http://www.w3.org/2000/svg">
<path d="M4.5 17.5L14.2972 24.6871V34.2487C14.2972 34.2487 9.60001 33.2935 9 33C8.39999 32.7065 5.25381 26.8315 5 26C4.74619 25.1685 4.5 17.5 4.5 17.5Z" fill="#571940"/>
<path d="M14 23.5L31.9971 19L35.8971 23.1628L31.9971 28.8444L26.4552 33.1851C25.5753 33.8743 24.4898 34.2488 23.3721 34.2488H14.2972C14.2972 34.2488 13.2587 31.4158 13.2472 29.5372C13.2357 27.6587 14 23.5 14 23.5Z" fill="#340E1D"/>
<path d="M31.9971 19.4214L39.5 7.5C39.5 7.5 39.7409 21.1108 37.997 23.3015C36.2531 25.4922 31.9971 28.8445 31.9971 28.8445C31.9971 28.8445 34.0805 24.3634 33.7971 22.8858C33.5136 21.4081 31.9971 19.4214 31.9971 19.4214Z" fill="#300320"/>
<path d="M4.6546 10.8775C4.47426 7.88962 5.89689 4.77827 8.79829 4.04209L21.441 0.83425C23.523 0.305992 25.7197 0.462133 27.706 1.27956L37.6406 5.36794C39.4308 6.10463 40.0649 8.31875 38.9362 9.89143L32.6046 18.7134C32.2111 19.2616 31.6443 19.6612 30.9956 19.8475L15.304 24.3549C14.5616 24.5681 13.7655 24.4868 13.0815 24.1277L6.65113 20.7524C3.84219 19.278 3.76837 15.5678 4.54725 12.4925V12.4925C4.66526 12.0266 4.69038 11.4704 4.6546 10.8775Z" fill="#D77FCB"/>
</svg>
