<svg width="79" height="79" viewBox="0 0 79 79" fill="none" xmlns="http://www.w3.org/2000/svg">
<path d="M12.4771 8.60469L46.7705 0.584961L77.8631 16.1909C77.8631 16.1909 77.1713 35.1747 69.4041 43.5014C62.3143 51.1018 44.7129 54.7723 44.7129 54.7723L14.3061 45.0186C14.3061 45.0186 0.81738 41.7116 0.817383 35.4816C0.817387 25.5111 12.4771 8.60469 12.4771 8.60469Z" fill="#A36FD4"/>
<path d="M1.50195 37.4318C1.50195 37.4318 3.82098 41.1025 6.76027 42.2003C14.3048 45.018 26.879 48.9195 26.879 48.9195L45.8547 54.555C45.8547 54.555 49.7362 65.9681 45.8547 71.2447C41.4693 77.2063 26.879 75.7964 26.879 75.7964L20.7963 68.512C19.2787 66.6946 19.2439 64.062 20.7128 62.2051L23.6783 58.4565V58.4565C24.8048 57.0325 23.8161 54.9342 22.0008 54.8964L5.61715 54.555L1.50195 37.4318Z" fill="#5F2450"/>
<path d="M5.61621 54.5559L21.3293 53.7614C23.6316 53.645 25.1994 56.0608 24.1556 58.1161L22.9915 60.4081L18.6477 65.1766C18.6477 65.1766 20.5813 63.4418 17.5046 60.4081C11.789 54.7727 5.61621 54.5559 5.61621 54.5559Z" fill="#4B1932"/>
<path d="M45.8546 54.5558C45.8546 54.5558 60.845 49.7 66.2019 46.1026C71.5589 42.5051 77.4044 20.5261 77.4044 20.5261C77.4044 20.5261 78.5475 23.653 78.5475 25.7281C78.5475 32.6156 77.3551 42.1032 76.6926 46.8432C76.4236 48.7678 75.5672 50.555 74.264 51.9965L61.1722 66.477C61.1722 66.477 53.5186 75.4782 46.5404 77.5312C39.1754 79.698 26.8789 75.7972 26.8789 75.7972C26.8789 75.7972 38.7673 74.4967 45.8546 71.0288C46.5404 64.5263 45.8546 54.5558 45.8546 54.5558Z" fill="#401729"/>
</svg>
