<svg width="134" height="158" viewBox="0 0 134 158" fill="none" xmlns="http://www.w3.org/2000/svg">
<path d="M5 77.5L37 93.5L58 103.5L67 127L57 153.5L24 130.5C24 130.5 31.5 111 24 101.5C16.5 92 5 77.5 5 77.5Z" fill="#4B1429"/>
<path d="M58 103.5L84.5 88L88 131C88 131 82.5 136.5 76 146C71.891 152.005 64.3854 154.814 59.4195 156.068C57.2204 156.623 55.5252 154.454 56.3168 152.329C58.6132 146.163 62.2945 135.295 62.5 128.5C62.7999 118.585 58 103.5 58 103.5Z" fill="#36101E"/>
<path d="M84.5 88L107.5 72.5C107.5 72.5 111.158 83.9959 111.5 91.5C111.842 99.0041 109 112 109 112L88 131L84.5 88Z" fill="#491525"/>
<path d="M107.5 72.5L133 47.5C133 47.5 130.8 84.5371 124 97.5C117.2 110.463 87.5 131 87.5 131L86 118L100 108.5C100 108.5 111 101.237 111 93.5C111 85.7631 107.5 72.5 107.5 72.5Z" fill="#36101E"/>
<path d="M5.04305 25.0712C2.86318 22.0025 4.41493 17.51 8.0879 16.6863L82.5 0C82.5 0 130.361 27.5 133.5 44C136.324 58.8426 72.9735 95.1287 60.2179 102.269C58.8095 103.057 57.1375 103.084 55.684 102.382L6.43731 78.6077C3.31012 77.098 2.58403 72.8861 4.80923 70.2202C9.15725 65.0111 14.9598 56.7921 15.5 49.5C16.0493 42.0843 9.77419 31.7316 5.04305 25.0712Z" fill="#D680C9"/>
</svg>
