<svg width="56" height="57" viewBox="0 0 56 57" fill="none" xmlns="http://www.w3.org/2000/svg">
<path d="M5.5 21.5L18.9378 32.8948C18.9378 32.8948 15.8259 33.4102 13.5331 34.4343C11.2403 35.4584 7.95402 39.2238 7.95402 39.2238C7.95402 39.2238 7.98726 33.9726 7 31C6.01274 28.0274 5.5 21.5 5.5 21.5Z" fill="#6D2F5B"/>
<path d="M19.6357 33.066L39 29.5C39 29.5 43 36.3552 43 42C43 45.5246 40.6882 50.1678 38.9515 53.1584C37.8859 54.9935 35.702 55.7793 33.657 55.2128L25.4206 52.9311C23.4969 52.3982 22.0745 50.7723 21.8022 48.7948L19.6357 33.066Z" fill="#6D3262"/>
<path d="M19.8101 32.7239L20.8562 39.0529L21.5536 46.7503C21.5536 46.7503 19.6713 41.8218 17.5436 40.2503C15.4159 38.6788 8.12891 39.0529 8.12891 39.0529C8.12891 39.0529 11.1877 35.746 13.185 34.6055C15.1822 33.4649 19.8101 32.7239 19.8101 32.7239Z" fill="#531837"/>
<path d="M38.8142 31.8687L44.9163 24.8555V31.3555L49.1006 35.974C49.1006 35.974 48.9861 39.5146 48.5776 41.6188C48.1691 43.723 47.0085 46.7504 47.0085 46.7504L37 55C37 55 41.6643 44.2287 41.6037 42.132C41.5431 40.0352 41.6037 40.2504 41.255 38.1977C40.9063 36.1451 38.8142 31.8687 38.8142 31.8687Z" fill="#561A4F"/>
<path d="M44.9161 25.0264L55.2025 10.8289C55.2025 10.8289 54.1182 16.0668 53.982 19.0395C53.9019 20.7886 54.0972 22.9075 54.2715 24.3554C54.4043 25.4585 54.2166 26.5823 53.6851 27.558L49.1003 35.9739C49.1003 35.9739 45.6478 32.8998 44.9161 31.3554C44.1843 29.811 44.9161 25.0264 44.9161 25.0264Z" fill="#4A1438"/>
<path d="M15.1768 2.15684C16.1146 0.83671 17.6337 0.0524902 19.253 0.0524902H40.6008C41.5952 0.0524902 42.5623 0.345077 43.3804 0.910334C46.5172 3.07773 54.5025 8.73758 55.2023 10.6579C55.8555 12.4501 46.1563 23.7275 41.2344 29.2887C39.4722 31.2798 36.9719 32.4484 34.3157 32.5668L22.1677 33.1086C20.2855 33.1925 18.4179 32.743 16.78 31.8119L10.2481 28.0985C5.10128 25.1725 3.60925 18.4404 7.03796 13.6138L15.1768 2.15684Z" fill="#B09FFD"/>
</svg>
