<svg width="38" height="31" viewBox="0 0 38 31" fill="none" xmlns="http://www.w3.org/2000/svg">
<path d="M0.227539 10.302L11.994 16.5605C11.994 16.5605 24.8111 16.6219 24.8111 20.0374C24.8111 21.9497 24.601 24.5574 22.0796 24.9051C13.774 26.0504 1.48823 20.2113 1.48823 20.2113L0.227539 10.302Z" fill="#652B41"/>
<path d="M13.2558 0.0471191C13.2558 0.0471191 22.1241 2.1005 27.1234 4.56713C28.717 5.35339 30.475 6.45672 32.0982 7.56799C34.9698 9.53395 34.6452 13.7269 31.6371 15.4769L26.1728 18.6558C25.0321 19.3194 23.6753 19.5051 22.3982 19.1725L1.69941 13.781C1.69941 13.781 -0.785704 10.4761 0.438714 8.73945C3.38037 4.56713 13.2558 0.0471191 13.2558 0.0471191Z" fill="#9E70B9"/>
<path d="M24.3891 19.5159C26.7004 18.299 28.4821 17.2569 30.9027 15.8652C33.3233 14.4734 34 12 34 12L35.5 19.5159L30.9027 25.5L19.5 31L1.35742 20.2113C1.35742 20.2113 15.3541 26.296 22.4981 24.2098C24.7003 23.5667 22.4189 20.5533 24.3891 19.5159Z" fill="#4B162A"/>
</svg>
