<svg width="32" height="31" viewBox="0 0 32 31" fill="none" xmlns="http://www.w3.org/2000/svg">
<path d="M0.519531 13.1965L12.9524 20.6976L10 22.5L7 23.3368H5.01333L0.519531 13.1965Z" fill="#5A173A"/>
<path d="M25.3855 16.3914L31.3773 7.50122L30.9279 21.1142L16.6975 30.6989L12.3535 29.5876L5.01367 23.3368H6.96098C6.96098 23.3368 8.00954 23.4793 9.20788 24.0313C10.4062 24.5833 11.0054 25.1426 11.0054 25.1426C11.0054 25.1426 12.4008 24.6109 13 26C13.5992 27.3891 14 26.9484 14 26.9484H17.7461C17.7461 26.9484 20.2888 26.102 21.7905 25.0037C23.2923 23.9053 25.3855 16.3914 25.3855 16.3914Z" fill="#360A21"/>
<path d="M11.9042 0.694824L31.3773 7.50133C31.3773 7.50133 28.8094 13.9405 25.3856 16.6693C21.9618 19.3981 13.1025 20.8365 13.1025 20.8365C13.1025 20.8365 5.92916 17.8719 4.26474 16.6693C2.60032 15.4667 0.370117 13.1966 0.370117 13.1966C0.370117 13.1966 2.28025 8.84904 4.26474 6.52897C6.24924 4.20891 11.9042 0.694824 11.9042 0.694824Z" fill="#D97ECD"/>
<path d="M12.8033 20.6975L18.9448 19.0306L25.6855 16.5303L23.1723 23.0982C22.6736 24.4014 21.6531 25.437 20.3573 25.9546L16.117 27.6484C14.2574 28.3913 12.2278 27.3367 11.3053 25.5593V25.5593C10.5657 24.1342 6.81152 23.3368 6.81152 23.3368L10 22.5L12.8033 20.6975Z" fill="#410D21"/>
</svg>
