<svg width="44" height="35" viewBox="0 0 44 35" fill="none" xmlns="http://www.w3.org/2000/svg">
<path d="M8.01481 2.90679C8.97468 1.32077 10.7333 0.396014 12.584 0.504123L29.3385 1.48283C30.2057 1.53349 31.0447 1.80918 31.7729 2.28275L39.6105 7.37989C41.7818 8.79194 42.5153 11.6283 41.3009 13.916L38.1333 19.8825L27.8391 19.2667L19.8694 23.5778L11.1237 19.9039C5.49583 17.5398 3.28079 10.729 6.44134 5.50671L8.01481 2.90679Z" fill="#6C2D40"/>
<path d="M5 13L19.872 23.5783L11.5703 32.3546L6.5 28.5L5 13Z" fill="#431730"/>
<path d="M26.6312 20.3861C26.8832 19.6209 27.5253 19.0244 28.3298 18.9819C32.3891 18.7673 38.1325 19.8821 38.1325 19.8821V26.9053C38.1325 28.4047 37.4667 29.8339 36.2127 30.6558C33.8548 32.2013 29.8225 34.3387 27.0082 33.1235C22.1829 31.0399 25.2525 24.5715 26.6312 20.3861Z" fill="#44172E"/>
<path d="M19.8701 23.5777L23.855 21.1142L25.4689 19.9379C26.9267 18.8755 28.9352 20.1337 28.6152 21.909L26.8436 31.7381H22.2022C21.0976 31.7381 20.251 32.6717 19.828 33.692C19.6314 34.1663 19.3315 34.5995 18.8739 34.8175C18.0088 35.2296 16.3834 34.8175 16.3834 34.8175L11.4023 32.2L19.8701 23.5777Z" fill="#3C1029"/>
<path d="M38.1329 19.8833L41.9517 11.5V18.7381C41.9517 20.3992 41.5378 22.0342 40.7476 23.4953L37.5 29.5L38.1329 19.8833Z" fill="#3E132F"/>
</svg>
