<svg width="91" height="94" viewBox="0 0 91 94" fill="none" xmlns="http://www.w3.org/2000/svg">
<path d="M2 42L50.5 64V79.5C50.5 79.5 37 91.5 30.5 91.5C24 91.5 12 79.5 12 79.5L2 42Z" fill="#571338"/>
<path d="M50 64.5L89.5 32.5L87.5 70.5C87.5 70.5 67.5188 82.6183 62.5 82.5C57.4812 82.3817 50 79.5 50 79.5V64.5Z" fill="#380D20"/>
<path d="M34.9602 2.6753C36.4701 1.08478 38.8404 0.663916 40.8056 1.63736L87.2983 24.6665C89.4469 25.7307 90.5325 28.1622 89.7586 30.4316C87.819 36.1191 83.6936 46.5554 78 52C69.9215 59.7253 49.5 64 49.5 64C49.5 64 27.5144 63.5983 18.5 58.5C12.2438 54.9616 5.7606 47.1829 2.37892 42.754C0.949822 40.8824 1.15739 38.2809 2.77874 36.5731L34.9602 2.6753Z" fill="#C963A5"/>
<path d="M50 79.5C50 79.5 61 81.5169 65 81.5C69 81.4831 88 70 88 70L59.5201 92.3092C58.5419 93.0755 57.3134 93.4501 56.0741 93.3599L30.5 91.5C30.5 91.5 37.192 89.3241 41 87C44.808 84.6759 50 79.5 50 79.5Z" fill="#3B072B"/>
</svg>
