<svg width="34" height="32" viewBox="0 0 34 32" fill="none" xmlns="http://www.w3.org/2000/svg">
<path d="M3.5 11.5C3.5 11.5 10.4081 20.4195 13.2474 19.9778C16.0867 19.5362 18.0688 19.9778 20.5573 19.1211C23.0458 18.2643 27.7116 15.123 27.7116 15.123L32 8C32 8 34.2439 17.2648 33.6218 19.1211C32.9996 20.9773 27.7116 15.123 27.7116 15.123C27.7116 15.123 12.4813 28.3835 12.1587 28.2595C9.76996 27.3412 8.74626 26.1817 7.02627 24.4042C5.30629 22.6268 3.5 11.5 3.5 11.5Z" fill="#723669"/>
<path d="M12.1582 28.2595L20.8678 20.9773C20.8678 20.9773 21.0325 24.3466 21.49 26.4032C21.9474 28.4599 23.2008 31.5436 23.2008 31.5436L15.7354 30.4013L12.1582 28.2595Z" fill="#571641"/>
<path d="M20.8682 20.9774C20.8682 20.9774 22.6121 18.9791 23.9787 17.836C25.3453 16.6929 27.867 15.123 27.867 15.123C27.867 15.123 29.7807 15.627 30.822 16.2654C31.8634 16.9037 33.3105 19.5495 33.3105 19.5495C33.3105 19.5495 30.7075 19.4565 28.8002 20.9774C26.8928 22.4982 23.2011 31.5437 23.2011 31.5437C23.2011 31.5437 21.7706 28.2914 21.3348 26.2605C20.8989 24.2296 20.8682 20.9774 20.8682 20.9774Z" fill="#45153B"/>
<path d="M15.1703 1.8614C16.2342 1.20709 17.502 0.973295 18.7258 1.22273C22.2696 1.945 29.6079 3.52684 30.5108 4.41394C30.8175 4.71535 31.1306 5.08756 31.4266 5.47443C32.4978 6.87446 32.4754 8.78558 31.4967 10.2517C30.1939 12.2034 28.2008 14.8719 26.1559 16.4081C23.5981 18.3297 18.1266 19.9609 15.3713 20.6987C14.298 20.9861 13.1664 20.8706 12.17 20.3789C10.2262 19.4195 6.96082 17.7159 5.47056 16.4081C5.42069 16.3644 5.37067 16.3196 5.32054 16.274C2.40683 13.6224 3.57392 8.99347 6.92972 6.92957L15.1703 1.8614Z" fill="#B6A7FA"/>
</svg>
