<svg width="80" height="79" viewBox="0 0 80 79" fill="none" xmlns="http://www.w3.org/2000/svg">
<path d="M54.0006 45.5L73 21L74 25.5L58.584 54.6807L55.2729 50.8211L54.0006 45.5Z" fill="#3A0E2F"/>
<path d="M29.4932 39.4836L33.7503 40.6898L41.7917 57.3342L46.9949 52.5097L49.1235 45.0318L56 44C56 44 57.4161 47.3869 58.1109 49.1326C58.9129 51.1478 58.5839 54.6807 58.5839 54.6807L53.1442 64.3297L47.9409 72.0489L40.1361 76.1497L31.9772 70.096C31.3109 69.6016 31.4157 68.5745 32.1681 68.2249V68.2249C34.3684 67.2026 35.6326 64.8534 35.2737 62.4539L33.7503 52.2685L29.4932 39.4836Z" fill="#491835"/>
<path d="M30.2443 1.59029C32.0648 0.661886 34.126 0.313533 36.1505 0.592123L58.8036 3.7094C61.3918 4.06557 63.7379 5.42054 65.3399 7.48442L71.2373 15.0822C74.1861 18.8813 74.013 24.2414 70.8252 27.8423L58.4859 41.7809C55.9426 44.6537 51.98 45.8181 48.2869 44.7778L30.3175 39.7159C29.7689 39.5614 29.2081 39.454 28.6412 39.395L6.31509 37.0714V37.0714C2.68668 34.4069 0.859403 29.9324 1.58539 25.4896L3.24046 15.3613L30.2443 1.59029Z" fill="#AB55AE"/>
<path d="M2.5 32.5L6.31498 37.0714L29.493 39.4836L33.9866 40.6897L35.8787 66.5007L34.3571 69.2466C33.4911 70.8093 31.1666 70.5388 30.6825 68.819L25.1324 49.0994C24.3114 46.1824 21.1051 44.6604 18.326 45.8686L9.1531 49.8562L2.5 32.5Z" fill="#5F2852"/>
<path d="M9.15332 49.8563L23.5804 43.5845L31 69.5C31 69.5 24.2162 59.3047 19.0867 55.1632C14.8909 51.7755 9.15332 49.8563 9.15332 49.8563Z" fill="#471230"/>
<path d="M33.75 40.6898L41.3183 42.6196L49.1231 45.0318L46.9946 52.5098L41.7913 57.3343L33.75 40.6898Z" fill="#61274D"/>
</svg>
