<svg width="107" height="108" viewBox="0 0 107 108" fill="none" xmlns="http://www.w3.org/2000/svg">
<path d="M3 39.5C3 39.5 30.8721 68.5465 40 67C49.1279 65.4535 55.5 67 63.5 64C71.5 61 86.5 50 86.5 50L103.5 24.5C103.5 24.5 107.5 57.5 105.5 64C103.5 70.5 86.5 50 86.5 50C86.5 50 37.537 96.4342 36.5 96C28.8205 92.7843 25.5295 88.7242 20 82.5C14.4705 76.2758 3 39.5 3 39.5Z" fill="#723669"/>
<path d="M36.5 96L64.5 70.5C64.5 70.5 65.0294 82.2983 66.5 89.5C67.9706 96.7017 72 107.5 72 107.5L48 103.5L36.5 96Z" fill="#571641"/>
<path d="M64.5 70.5C64.5 70.5 70.1066 63.5029 74.5 59.5C78.8934 55.4971 87 50 87 50C87 50 93.1522 51.7648 96.5 54C99.8478 56.2352 104.5 65.5 104.5 65.5C104.5 65.5 96.1317 65.1744 90 70.5C83.8683 75.8256 72 107.5 72 107.5C72 107.5 67.4012 96.1117 66 89C64.5988 81.8883 64.5 70.5 64.5 70.5Z" fill="#45153B"/>
<path d="M49.7533 1.17015C50.8704 0.421783 52.2221 0.15064 53.5366 0.433598C61.7525 2.20213 92.1777 8.94456 95.5 12.5C98.0368 15.2148 100.708 19.5702 102.233 22.22C103.048 23.6376 103.058 25.3551 102.265 26.7853C99.1283 32.4405 90.4693 47.1607 81.5 54.5C71.9458 62.3179 49.747 68.7633 43.2911 70.5238C42.1313 70.8401 40.9177 70.7083 39.8506 70.1548C35.0082 67.6428 20.8091 60.0524 15 54.5C10.9226 50.6027 6.54998 44.5333 3.58412 40.1023C1.50994 37.0034 2.43172 32.871 5.52978 30.7956L49.7533 1.17015Z" fill="#B6A7FA"/>
</svg>
