<svg width="139" height="159" viewBox="0 0 139 159" fill="none" xmlns="http://www.w3.org/2000/svg">
<path d="M2.5 90C2.5 90 25.8389 99.128 40 102C54.1611 104.872 75 104 75 104L77.5 109L76.5 119.5L69.5 142.5L60 132.5L33 128.5C33 128.5 11.5037 119.5 8.5 115.5C5.49635 111.5 2.5 90 2.5 90Z" fill="#541A2C"/>
<path d="M75 103.5L129.5 37C129.5 37 130.296 91.9454 129.5 100.5C128.704 109.055 123 128.07 118 134.5C114.036 139.597 91.2209 149.809 81.9326 153.824C79.6667 154.804 77.0524 153.943 75.7689 151.835L71 144C71 144 71 136.5 71 125C71 113.5 75 103.5 75 103.5Z" fill="#380D20"/>
<path d="M32 128L71.5 120V144.5C71.5 144.5 62.2014 136.295 55 133.5C47.7986 130.705 32 128 32 128Z" fill="#430D28"/>
<path d="M16.5462 31.8606C16.8445 30.9652 17.3805 30.1883 18.1175 29.5987C21.4798 26.9087 31.7482 18.8555 39.5 14.5C47.5299 9.98827 71.0309 2.60343 77.7105 0.546698C78.8728 0.188794 80.1101 0.279182 81.216 0.785276L132.934 24.4527C135.809 25.7687 136.781 29.4031 135.082 32.0708C131.696 37.3886 126.951 45.7558 126.5 51.5C126.047 57.2716 128.427 64.8718 130.199 69.5958C131.136 72.0935 130.14 74.9677 127.774 76.199L71.6851 105.383C70.9087 105.787 70.0538 105.981 69.1797 105.936C63.8814 105.664 43.9017 104.473 32.5 101.5C22.7242 98.951 9.64663 93.0691 3.48716 90.173C1.42223 89.202 0.330016 86.9405 0.817243 84.7113C1.63365 80.9761 2.91928 75.229 4 71C5.52669 65.0258 14.4252 38.2282 16.5462 31.8606Z" fill="#D77FCB"/>
</svg>
