<svg width="40" height="37" viewBox="0 0 40 37" fill="none" xmlns="http://www.w3.org/2000/svg">
<path d="M31.4941 15.994L36 11.5L35.5 18.7191L32.2692 24.743L31.4941 18.7191V15.994Z" fill="#3A1423"/>
<path d="M7.00195 27.7552C7.00195 27.7552 10.5855 27.8527 12.1174 27.1814C14.4953 26.1395 14.7527 22.0181 14.7527 22.0181H16.4578L17.6979 29.9066L18.008 32.2014L21.2633 36.6476L13.6676 33.6357L9.48218 31.1974L7.00195 27.7552Z" fill="#4D1C31"/>
<path d="M1.26602 13.6992C1.26602 13.6992 2.892 16.9093 4.67634 18.5757C6.42522 20.2091 9.94682 21.7311 9.94682 21.7311L14.9073 22.018C14.9073 22.018 14.9982 23.696 14.1322 25.3168C11.4037 30.4239 3.74625 27.8985 3.74625 27.8985L0.335938 22.4483L1.26602 13.6992Z" fill="#682B3D"/>
<path d="M3.74609 27.8984L7.62145 28.4721L9.48162 31.1973L6.69137 30.1933L3.74609 27.8984Z" fill="#682B3D"/>
<path d="M16.457 22.0181L23 21.5H24C24 21.5 24 23.3224 24 24.5C24 25.6776 24 28 24 28C24 28 22.6652 29.4654 21.7275 30.3368C20.6195 31.3666 18.0072 32.2014 18.0072 32.2014L16.457 22.0181Z" fill="#682B3D"/>
<path d="M22.9139 0.503906L32.0598 4.6633L34.146 6.23906C36.8617 8.29028 36.7791 12.3964 33.983 14.3367L24.1996 21.1258C23.3625 21.7067 22.3679 22.018 21.349 22.018H11.4314C10.7237 22.018 10.0232 21.8699 9.39202 21.5499C7.88006 20.7834 4.97829 19.1708 3.53712 17.4283C2.56514 16.2531 1.19942 15.1777 1.26602 13.6992C1.42107 10.257 4.67637 8.96612 7.72251 6.67128C12.9645 2.72219 22.9139 0.503906 22.9139 0.503906Z" fill="#8E5CC4"/>
<path d="M23.2783 21.7312L31.4941 15.9941L32.2691 24.7432L21.2631 36.6477L18.0078 32.2014C18.0078 32.2014 21.3715 31.3003 22.6582 29.1894C24.056 26.8964 23.2783 21.7312 23.2783 21.7312Z" fill="#4D1C31"/>
</svg>
