<svg width="48" height="49" viewBox="0 0 48 49" fill="none" xmlns="http://www.w3.org/2000/svg">
<path d="M31 38.756C32.706 39.2513 34.4736 39.5018 36.25 39.5C39.1069 39.5041 41.9265 38.8528 44.4921 37.596C44.5679 35.8034 44.0573 34.0349 43.0376 32.5587C42.0179 31.0824 40.5448 29.9787 38.8415 29.415C37.1381 28.8513 35.2974 28.8582 33.5984 29.4348C31.8993 30.0113 30.4346 31.1261 29.426 32.61M31 38.756V38.75C31 36.524 30.428 34.43 29.426 32.61M31 38.756V38.968C27.151 41.2862 22.7413 42.5076 18.248 42.5C13.586 42.5 9.22405 41.21 5.50005 38.968L5.49805 38.75C5.49651 35.9189 6.43727 33.1679 8.17201 30.9305C9.90675 28.6932 12.3368 27.0969 15.079 26.3932C17.8213 25.6895 20.7197 25.9186 23.3174 27.0442C25.9151 28.1698 28.0642 30.128 29.426 32.61M25 13.25C25 15.0402 24.2889 16.7571 23.023 18.023C21.7571 19.2888 20.0403 20 18.25 20C16.4598 20 14.7429 19.2888 13.4771 18.023C12.2112 16.7571 11.5 15.0402 11.5 13.25C11.5 11.4598 12.2112 9.7429 13.4771 8.47703C14.7429 7.21116 16.4598 6.5 18.25 6.5C20.0403 6.5 21.7571 7.21116 23.023 8.47703C24.2889 9.7429 25 11.4598 25 13.25ZM41.5 17.75C41.5 19.1424 40.9469 20.4777 39.9624 21.4623C38.9778 22.4469 37.6424 23 36.25 23C34.8577 23 33.5223 22.4469 32.5377 21.4623C31.5532 20.4777 31 19.1424 31 17.75C31 16.3576 31.5532 15.0223 32.5377 14.0377C33.5223 13.0531 34.8577 12.5 36.25 12.5C37.6424 12.5 38.9778 13.0531 39.9624 14.0377C40.9469 15.0223 41.5 16.3576 41.5 17.75Z" stroke="white" stroke-width="2.5" stroke-linecap="round" stroke-linejoin="round"/>
</svg>
