<svg width="55" height="55" viewBox="0 0 55 55" fill="none" xmlns="http://www.w3.org/2000/svg">
<path d="M27.1731 0C21.8172 0 16.5816 1.61285 12.1284 4.63459C7.6751 7.65632 4.20421 11.9512 2.1546 16.9762C0.104995 22.0012 -0.431276 27.5305 0.613605 32.865C1.65849 38.1995 4.23759 43.0995 8.02477 46.9454C11.812 50.7914 16.6371 53.4105 21.8901 54.4716C27.1431 55.5327 32.5879 54.9881 37.5361 52.9067C42.4843 50.8253 46.7136 47.3005 49.6892 42.7782C52.6647 38.2558 54.2529 32.939 54.2529 27.5C54.2445 20.2092 51.3887 13.2195 46.3121 8.06406C41.2355 2.90868 34.3525 0.00860118 27.1731 0ZM27.1731 50C22.791 50 18.5073 48.6804 14.8638 46.2081C11.2202 43.7357 8.38037 40.2217 6.70342 36.1104C5.02647 31.999 4.5877 27.475 5.44261 23.1105C6.29751 18.7459 8.40768 14.7368 11.5063 11.5901C14.6049 8.44342 18.5528 6.3005 22.8506 5.43233C27.1485 4.56416 31.6034 5.00974 35.6519 6.71271C39.7004 8.41568 43.1608 11.2996 45.5953 14.9997C48.0299 18.6998 49.3293 23.0499 49.3293 27.5C49.3222 33.4651 46.9856 39.1839 42.832 43.4019C38.6785 47.6199 33.0471 49.9927 27.1731 50ZM29.6349 38.75V43.75H24.7113V38.75H29.6349ZM37.0203 21.25C37.023 22.7493 36.6923 24.2299 36.0529 25.5813C35.4135 26.9328 34.4819 28.1202 33.3276 29.055C31.463 30.5224 30.2021 32.6413 29.79 35H24.7876C25.0053 33.0726 25.6008 31.2089 26.539 29.5189C27.4772 27.829 28.7391 26.3468 30.2504 25.16C30.8568 24.6671 31.3398 24.0354 31.6599 23.3167C31.98 22.5979 32.1281 21.8125 32.0921 21.0245C32.0561 20.2365 31.837 19.4683 31.4527 18.7828C31.0685 18.0972 30.5299 17.5137 29.8811 17.08C29.158 16.6 28.3259 16.3159 27.4641 16.2546C26.6023 16.1933 25.7394 16.357 24.9575 16.73C24.1234 17.136 23.4235 17.7793 22.9427 18.5817C22.462 19.3842 22.2211 20.3112 22.2495 21.25C22.2495 21.913 21.9901 22.5489 21.5285 23.0178C21.0668 23.4866 20.4406 23.75 19.7877 23.75C19.1348 23.75 18.5086 23.4866 18.0469 23.0178C17.5853 22.5489 17.3259 21.913 17.3259 21.25C17.2893 19.3286 17.8113 17.4389 18.8267 15.8172C19.8422 14.1955 21.3059 12.9138 23.0348 12.1325C24.5674 11.4369 26.2478 11.1445 27.921 11.2821C29.5942 11.4197 31.2064 11.983 32.6088 12.92C33.9639 13.831 35.0759 15.0684 35.8456 16.5219C36.6154 17.9753 37.0189 19.5997 37.0203 21.25Z" fill="white"/>
</svg>
