<svg width="149" height="127" viewBox="0 0 149 127" fill="none" xmlns="http://www.w3.org/2000/svg">
<path d="M6.75384 0.309381C9.91964 0.198387 13.4934 0.317155 16.696 0.294768C24.3546 0.241038 32.0528 0.364286 39.7104 0.272851C39.791 2.17436 39.597 4.07669 39.6437 5.92258C39.7219 9.0032 39.7399 11.9755 39.731 15.0574C36.6769 14.9753 33.393 15.0317 30.3245 15.0313L15.0467 15.0427C15.1757 23.9987 14.9901 32.9971 15.0653 41.9567C15.0856 44.3817 14.9237 46.7527 14.918 49.1663L15.073 111.377C17.3835 111.455 20.0901 111.388 22.4254 111.388L36.4819 111.385L40.0631 111.38C40.0118 116.262 40.1248 121.239 40.0935 126.156C38.1638 126.426 35.1352 126.269 33.0913 126.268L20.5654 126.261L10.8927 126.275C9.17261 126.278 7.31823 126.345 5.58769 126.187C3.1324 125.961 0.281667 123.453 0.166667 120.886C0.080888 118.969 0.107751 117.033 0.118709 115.114L0.179507 104.61L0.178565 69.48L0.181277 26.3281V12.3304C0.180923 10.0587 0.146987 7.73596 0.185164 5.464C0.262812 4.17166 0.583304 2.77116 1.44368 1.77139C2.6354 0.386557 5.04109 0.447476 6.75384 0.309381Z" fill="white"/>
<path d="M108.595 0.269007C116.578 0.356907 124.585 0.221642 132.571 0.277375C136.571 0.3053 140.612 0.170268 144.598 0.570294C146.058 0.716754 147.915 2.80808 147.987 4.29177C148.039 5.58423 148.01 7.01725 148.007 8.34847L148.052 15.0681L148.051 37.8241L148.052 87.0506C148.053 97.5974 147.971 108.175 148.15 118.716C148.22 121.099 148.186 122.518 146.409 124.334C144.479 126.306 142.549 126.135 139.993 126.147C138.589 126.154 137.171 126.148 135.772 126.148L122.436 126.14L108.259 126.151C108.159 123.32 108.304 120.184 108.243 117.319C108.221 116.28 108.178 112.658 108.309 111.777C108.671 111.512 109.528 111.394 109.984 111.395C117.801 111.413 125.666 111.275 133.479 111.41C133.603 108.578 133.413 104.421 133.412 101.417L133.407 77.9922L133.479 15.0023C125.341 15.2461 116.648 14.97 108.426 15.067C108.607 10.1863 108.326 5.08428 108.595 0.269007Z" fill="white"/>
<path d="M86.516 38.4943L75.0547 59.8703L97.0876 100.404C100.36 100.394 114.839 100.426 120.176 100.434L86.516 38.4943Z" fill="#FFFEFE"/>
<path d="M96.8337 25.7223C96.5369 35.2138 96.7283 44.7166 96.7637 54.2111L120.108 97.419C120.033 73.4154 120.572 49.7085 120.178 25.7114L96.8337 25.7223Z" fill="#FFFEFE"/>
<path d="M62.5457 36.8531L85.768 36.9645C85.768 36.9645 77.9757 51.337 74.279 58.4362C74.279 58.4362 71.8811 62.6451 71.1087 64.0851L65.4209 74.6421L56.2675 91.4304C54.7249 94.2347 52.6997 97.6846 51.2996 100.501C48.0275 100.491 34.6844 100.485 29.3475 100.493L51.7485 56.852C51.7497 56.8502 51.7517 56.849 51.7525 56.8473C54.1636 52.0272 56.826 47.3205 59.4029 42.5859C60.4452 40.6708 61.5371 38.7843 62.5457 36.8531Z" fill="white"/>
<path d="M51.3996 25.5808C51.4712 27.8708 51.3548 30.5832 51.3734 32.9367L51.36 54.5996L28.1686 99.7813C27.9941 97.4357 28.1348 93.1053 28.1357 90.6816L28.1351 37.8354C28.134 33.8882 27.9532 29.5977 28.0163 25.7553C28.9402 25.7735 29.8619 25.6402 30.7854 25.6278C37.6551 25.5353 44.5297 25.6686 51.3996 25.5808Z" fill="white"/>
</svg>
