<svg width="1440" height="1024" viewBox="0 0 1440 1024" fill="none" xmlns="http://www.w3.org/2000/svg">
<path opacity="0.7" d="M1206.88 750.878C1206.88 749.671 1207.52 749.067 1208.78 749.067C1210.05 749.067 1210.69 749.671 1210.69 750.878C1210.69 752.086 1210.05 752.689 1208.78 752.689C1208.15 752.689 1206.88 752.086 1206.88 750.878Z" fill="white"/>
<path opacity="0.7" d="M1128.83 750.877C1128.83 750.273 1129.47 749.669 1130.1 749.669C1130.74 749.669 1131.37 750.273 1131.37 750.877C1131.37 751.48 1130.74 752.084 1130.1 752.084C1129.47 752.688 1128.83 752.084 1128.83 750.877Z" fill="white"/>
<path opacity="0.7" d="M1283.02 653.677C1283.02 653.073 1283.66 652.469 1284.29 652.469C1284.93 652.469 1285.56 653.073 1285.56 653.677C1285.56 654.281 1284.93 654.884 1284.29 654.884C1283.66 654.884 1283.02 654.281 1283.02 653.677Z" fill="white"/>
<path opacity="0.7" d="M403.56 727.332C403.56 726.729 404.195 726.125 404.83 726.125C405.464 726.125 406.099 726.729 406.099 727.332C406.099 727.936 405.464 728.54 404.83 728.54C404.195 728.54 403.56 727.936 403.56 727.332Z" fill="white"/>
<path opacity="0.7" d="M1112.33 822.721C1112.33 822.118 1112.97 821.514 1113.6 821.514C1114.24 821.514 1114.87 822.118 1114.87 822.721C1114.87 823.325 1114.24 823.929 1113.6 823.929C1112.97 823.929 1112.33 823.325 1112.33 822.721Z" fill="white"/>
<path opacity="0.7" d="M1114.87 782.272C1114.87 781.668 1115.51 781.064 1116.14 781.064C1116.78 781.064 1117.41 781.668 1117.41 782.272C1117.41 782.875 1116.78 783.479 1116.14 783.479C1115.51 783.479 1114.87 782.875 1114.87 782.272Z" fill="white"/>
<path opacity="0.7" d="M1057.13 992.973C1057.13 991.766 1057.76 991.162 1059.03 991.162C1060.3 991.162 1060.94 991.766 1060.94 992.973C1060.94 994.18 1060.3 994.784 1059.03 994.784C1057.76 994.784 1057.13 993.577 1057.13 992.973Z" fill="white"/>
<path opacity="0.7" d="M1050.15 708.616C1050.15 707.408 1051.42 706.201 1052.69 706.201C1053.96 706.201 1055.23 707.408 1055.23 708.616C1055.23 709.823 1053.96 711.031 1052.69 711.031C1050.79 711.031 1050.15 709.823 1050.15 708.616Z" fill="white"/>
<path opacity="0.7" d="M1162.46 1011.08C1162.46 1009.88 1163.73 1008.67 1165 1008.67C1166.27 1008.67 1167.54 1009.88 1167.54 1011.08C1167.54 1012.29 1166.27 1013.5 1165 1013.5C1163.73 1013.5 1162.46 1012.9 1162.46 1011.08Z" fill="white"/>
<path opacity="0.7" d="M1373.13 810.646C1373.13 809.439 1374.39 808.231 1375.66 808.231C1376.93 808.231 1378.2 809.439 1378.2 810.646C1378.2 811.854 1376.93 813.061 1375.66 813.061C1374.39 813.061 1373.13 811.854 1373.13 810.646Z" fill="white"/>
<path opacity="0.7" d="M1409.29 620.471C1409.29 619.263 1410.56 618.056 1411.83 618.056C1413.1 618.056 1414.37 619.263 1414.37 620.471C1414.37 621.678 1413.1 622.886 1411.83 622.886C1409.93 622.886 1409.29 621.678 1409.29 620.471Z" fill="white"/>
<path opacity="0.7" d="M1285.56 797.364C1285.56 796.157 1286.83 794.949 1288.1 794.949C1289.37 794.949 1290.64 796.157 1290.64 797.364C1290.64 798.572 1289.37 799.779 1288.1 799.779C1286.83 799.779 1285.56 798.572 1285.56 797.364Z" fill="white"/>
<path opacity="0.7" d="M1341.4 634.961C1341.4 633.754 1342.03 633.15 1343.3 633.15C1344.57 633.15 1345.2 633.754 1345.2 634.961C1345.2 636.168 1344.57 636.772 1343.3 636.772C1342.03 636.772 1341.4 636.168 1341.4 634.961Z" fill="white"/>
<path opacity="0.7" d="M1307.77 876.453C1307.77 875.245 1308.4 874.642 1309.67 874.642C1310.94 874.642 1311.57 875.245 1311.57 876.453C1311.57 877.66 1310.94 878.264 1309.67 878.264C1308.4 878.264 1307.77 877.057 1307.77 876.453Z" fill="white"/>
<path opacity="0.7" d="M1372.49 1022.56C1372.49 1021.95 1373.12 1021.35 1373.76 1021.35C1374.39 1021.35 1375.03 1021.95 1375.03 1022.56C1375.03 1023.16 1374.39 1023.76 1373.76 1023.76C1373.12 1024.37 1372.49 1023.76 1372.49 1022.56Z" fill="white"/>
<path opacity="0.7" d="M629.455 924.148C629.455 923.544 630.089 922.941 630.724 922.941C631.358 922.941 631.993 923.544 631.993 924.148C631.993 924.752 631.358 925.355 630.724 925.355C630.089 925.355 629.455 925.355 629.455 924.148Z" fill="white"/>
<path opacity="0.7" d="M1209.41 945.882C1209.41 945.278 1210.05 944.674 1210.68 944.674C1211.32 944.674 1211.95 945.278 1211.95 945.882C1211.95 946.486 1211.32 947.089 1210.68 947.089C1210.05 947.089 1209.41 946.486 1209.41 945.882Z" fill="white"/>
<path opacity="0.7" d="M793.164 596.314C793.164 595.711 793.799 595.107 794.433 595.107C795.068 595.107 795.702 595.711 795.702 596.314C795.702 596.918 795.068 597.522 794.433 597.522C793.799 597.522 793.164 596.918 793.164 596.314Z" fill="white"/>
<path opacity="0.7" d="M1153.58 873.434C1153.58 872.83 1154.21 872.227 1154.85 872.227C1155.48 872.227 1156.11 872.83 1156.11 873.434C1156.11 874.038 1155.48 874.642 1154.85 874.642C1154.21 874.642 1153.58 874.038 1153.58 873.434Z" fill="white"/>
<path opacity="0.7" d="M1255.74 604.774C1255.74 604.17 1256.37 603.567 1257.01 603.567C1257.64 603.567 1258.28 604.17 1258.28 604.774C1258.28 605.378 1257.64 605.981 1257.01 605.981C1256.37 605.981 1255.74 605.378 1255.74 604.774Z" fill="white"/>
<path opacity="0.7" d="M1242.41 995.992C1242.41 994.784 1243.68 993.577 1244.95 993.577C1246.22 993.577 1247.49 994.784 1247.49 995.992C1247.49 997.199 1246.22 998.407 1244.95 998.407C1243.68 998.407 1242.41 997.199 1242.41 995.992Z" fill="white"/>
<path opacity="0.7" d="M697.985 939.846C697.985 938.638 699.254 937.431 700.523 937.431C701.793 937.431 703.062 938.638 703.062 939.846C703.062 941.053 701.793 942.261 700.523 942.261C698.62 942.261 697.985 941.657 697.985 939.846Z" fill="white"/>
<path opacity="0.7" d="M1407.39 654.884C1407.39 653.676 1408.03 653.073 1409.29 653.073C1410.56 653.073 1411.2 653.676 1411.2 654.884C1411.2 656.091 1410.56 656.695 1409.29 656.695C1408.03 656.695 1407.39 656.091 1407.39 654.884Z" fill="white"/>
<path opacity="0.7" d="M1113.6 656.695C1113.6 654.883 1115.51 653.072 1117.41 653.072C1119.31 653.072 1121.22 654.883 1121.22 656.695C1121.22 658.506 1119.31 660.317 1117.41 660.317C1115.51 659.713 1113.6 658.506 1113.6 656.695Z" fill="white"/>
<path opacity="0.7" d="M1227.19 718.881C1227.19 718.277 1227.82 717.673 1228.45 717.673C1229.09 717.673 1229.72 718.277 1229.72 718.881C1229.72 719.485 1229.09 720.088 1228.45 720.088C1227.82 720.692 1227.19 720.088 1227.19 718.881Z" fill="white"/>
<path opacity="0.7" d="M1149.13 618.056C1149.13 617.453 1149.77 616.849 1150.4 616.849C1151.04 616.849 1151.67 617.453 1151.67 618.056C1151.67 618.66 1151.04 619.264 1150.4 619.264C1149.77 619.264 1149.13 618.66 1149.13 618.056Z" fill="white"/>
<path opacity="0.7" d="M536.177 755.103C536.177 754.5 536.812 753.896 537.446 753.896C538.081 753.896 538.715 754.5 538.715 755.103C538.715 755.707 538.081 756.311 537.446 756.311C536.812 756.311 536.177 755.707 536.177 755.103Z" fill="white"/>
<path opacity="0.7" d="M498.105 624.094C498.105 623.49 498.739 622.886 499.374 622.886C500.009 622.886 500.643 623.49 500.643 624.094C500.643 624.698 500.009 625.301 499.374 625.301C498.739 625.301 498.105 624.698 498.105 624.094Z" fill="white"/>
<path opacity="0.7" d="M689.736 631.942C689.736 631.338 690.371 630.735 691.005 630.735C691.64 630.735 692.274 631.338 692.274 631.942C692.274 632.546 691.64 633.15 691.005 633.15C690.371 633.15 689.736 632.546 689.736 631.942Z" fill="white"/>
<path opacity="0.7" d="M422.595 684.467C422.595 683.863 423.23 683.259 423.864 683.259C424.499 683.259 425.133 683.863 425.133 684.467C425.133 685.07 424.499 685.674 423.864 685.674C423.23 686.278 422.595 685.674 422.595 684.467Z" fill="white"/>
<path opacity="0.7" d="M531.098 674.204C531.098 672.997 532.367 671.789 533.636 671.789C534.905 671.789 536.174 672.997 536.174 674.204C536.174 675.412 534.905 676.619 533.636 676.619C532.367 676.619 531.098 675.412 531.098 674.204Z" fill="white"/>
<path opacity="0.7" d="M574.25 797.364C574.25 796.157 575.519 794.949 576.789 794.949C578.058 794.949 579.327 796.157 579.327 797.364C579.327 798.572 578.058 799.779 576.789 799.779C575.519 799.779 574.25 798.572 574.25 797.364Z" fill="white"/>
<path opacity="0.7" d="M531.734 610.811C531.734 610.208 532.368 609.604 533.003 609.604C533.637 609.604 534.272 610.208 534.272 610.811C534.272 611.415 533.637 612.019 533.003 612.019C532.368 612.019 531.734 611.415 531.734 610.811Z" fill="white"/>
<path opacity="0.7" d="M498.105 945.882C498.105 945.278 498.739 944.674 499.374 944.674C500.009 944.674 500.643 945.278 500.643 945.882C500.643 946.486 500.009 947.089 499.374 947.089C498.739 947.089 498.105 946.486 498.105 945.882Z" fill="white"/>
<path opacity="0.7" d="M505.72 866.19C505.72 865.586 506.355 864.983 506.989 864.983C507.624 864.983 508.258 865.586 508.258 866.19C508.258 866.794 507.624 867.397 506.989 867.397C506.355 867.397 505.72 866.794 505.72 866.19Z" fill="white"/>
<path opacity="0.7" d="M571.708 974.861C571.708 974.258 572.343 973.654 572.977 973.654C573.612 973.654 574.247 974.258 574.247 974.861C574.247 975.465 573.612 976.069 572.977 976.069C572.343 976.673 571.708 976.069 571.708 974.861Z" fill="white"/>
<path opacity="0.7" d="M531.098 995.992C531.098 994.784 532.367 993.577 533.636 993.577C534.905 993.577 536.174 994.784 536.174 995.992C536.174 997.199 534.905 998.407 533.636 998.407C532.367 998.407 531.098 997.199 531.098 995.992Z" fill="white"/>
<path opacity="0.7" d="M637.706 814.27C637.706 813.062 638.975 811.855 640.244 811.855C641.513 811.855 642.782 813.062 642.782 814.27C642.782 815.477 641.513 816.685 640.244 816.685C638.975 816.685 637.706 815.477 637.706 814.27Z" fill="white"/>
<path opacity="0.7" d="M670.699 720.087C670.699 719.483 671.333 718.88 671.968 718.88C672.602 718.88 673.237 719.483 673.237 720.087C673.237 720.691 672.602 721.294 671.968 721.294C671.333 721.294 670.699 720.691 670.699 720.087Z" fill="white"/>
<path opacity="0.7" d="M1366.15 607.794C1366.15 606.586 1366.78 605.983 1368.05 605.983C1369.32 605.983 1369.95 606.586 1369.95 607.794C1369.95 609.001 1369.32 609.605 1368.05 609.605C1366.78 609.605 1366.15 609.001 1366.15 607.794Z" fill="white"/>
<path opacity="0.7" d="M866.135 749.67C866.135 747.859 868.038 746.047 869.942 746.047C871.845 746.047 873.749 747.859 873.749 749.67C873.749 751.481 871.845 753.292 869.942 753.292C868.038 752.689 866.135 751.481 866.135 749.67Z" fill="white"/>
<path opacity="0.7" d="M910.553 755.103C910.553 754.5 911.187 753.896 911.822 753.896C912.456 753.896 913.091 754.5 913.091 755.103C913.091 755.707 912.456 756.311 911.822 756.311C911.187 756.311 910.553 755.707 910.553 755.103Z" fill="white"/>
<path opacity="0.7" d="M988.598 898.792C988.598 898.188 989.232 897.584 989.867 897.584C990.501 897.584 991.136 898.188 991.136 898.792C991.136 899.395 990.501 899.999 989.867 899.999C989.232 900.603 988.598 899.999 988.598 898.792Z" fill="white"/>
<path opacity="0.7" d="M871.848 624.094C871.848 623.49 872.482 622.886 873.117 622.886C873.751 622.886 874.386 623.49 874.386 624.094C874.386 624.698 873.751 625.301 873.117 625.301C872.482 625.301 871.848 624.698 871.848 624.094Z" fill="white"/>
<path opacity="0.7" d="M945.451 653.677C945.451 653.073 946.086 652.469 946.72 652.469C947.355 652.469 947.989 653.073 947.989 653.677C947.989 654.281 947.355 654.884 946.72 654.884C946.086 654.884 945.451 654.281 945.451 653.677Z" fill="white"/>
<path opacity="0.7" d="M777.299 604.171C777.299 603.567 777.933 602.963 778.568 602.963C779.202 602.963 779.837 603.567 779.837 604.171C779.837 604.775 779.202 605.378 778.568 605.378C777.933 605.378 777.299 604.775 777.299 604.171Z" fill="white"/>
<path opacity="0.7" d="M979.717 682.657C979.717 682.053 980.351 681.449 980.986 681.449C981.62 681.449 982.255 682.053 982.255 682.657C982.255 683.26 981.62 683.864 980.986 683.864C980.351 684.468 979.717 683.864 979.717 682.657Z" fill="white"/>
<path opacity="0.7" d="M777.299 782.272C777.299 781.668 777.933 781.064 778.568 781.064C779.202 781.064 779.837 781.668 779.837 782.272C779.837 782.875 779.202 783.479 778.568 783.479C777.933 783.479 777.299 782.875 777.299 782.272Z" fill="white"/>
<path opacity="0.7" d="M920.07 814.269C920.07 813.665 920.705 813.062 921.339 813.062C921.974 813.062 922.608 813.665 922.608 814.269C922.608 814.873 921.974 815.477 921.339 815.477C920.705 815.477 920.07 814.873 920.07 814.269Z" fill="white"/>
<path opacity="0.7" d="M1076.8 749.67C1076.8 748.463 1078.07 747.255 1079.34 747.255C1080.6 747.255 1081.87 748.463 1081.87 749.67C1081.87 750.878 1080.6 752.085 1079.34 752.085C1078.07 752.085 1076.8 750.878 1076.8 749.67Z" fill="white"/>
<path opacity="0.7" d="M1050.78 782.271C1050.78 781.064 1052.05 779.856 1053.32 779.856C1054.59 779.856 1055.86 781.064 1055.86 782.271C1055.86 783.479 1054.59 784.686 1053.32 784.686C1052.05 784.686 1050.78 783.479 1050.78 782.271Z" fill="white"/>
<path opacity="0.7" d="M1071.72 620.471C1071.72 619.263 1072.99 618.056 1074.26 618.056C1075.53 618.056 1076.8 619.263 1076.8 620.471C1076.8 621.678 1075.53 622.886 1074.26 622.886C1072.99 622.886 1071.72 621.678 1071.72 620.471Z" fill="white"/>
<path opacity="0.7" d="M948.626 797.364C948.626 796.157 949.895 794.949 951.164 794.949C952.433 794.949 953.702 796.157 953.702 797.364C953.702 798.572 952.433 799.779 951.164 799.779C949.895 799.779 948.626 798.572 948.626 797.364Z" fill="white"/>
<path opacity="0.7" d="M1003.83 634.961C1003.83 633.754 1004.46 633.15 1005.73 633.15C1007 633.15 1007.64 633.754 1007.64 634.961C1007.64 636.168 1007 636.772 1005.73 636.772C1004.46 636.772 1003.83 636.168 1003.83 634.961Z" fill="white"/>
<path opacity="0.7" d="M819.182 704.39C819.182 702.579 821.085 700.768 822.989 700.768C824.892 700.768 826.796 702.579 826.796 704.39C826.796 706.201 824.892 708.013 822.989 708.013C820.451 708.013 819.182 706.805 819.182 704.39Z" fill="white"/>
<path opacity="0.7" d="M1000.02 827.55C1000.02 826.343 1000.65 825.739 1001.92 825.739C1003.19 825.739 1003.83 826.343 1003.83 827.55C1003.83 828.758 1003.19 829.361 1001.92 829.361C1001.29 829.361 1000.02 828.758 1000.02 827.55Z" fill="white"/>
<path opacity="0.7" d="M1034.92 1022.56C1034.92 1021.95 1035.55 1021.35 1036.19 1021.35C1036.82 1021.35 1037.46 1021.95 1037.46 1022.56C1037.46 1023.16 1036.82 1023.76 1036.19 1023.76C1035.55 1024.37 1034.92 1023.76 1034.92 1022.56Z" fill="white"/>
<path opacity="0.7" d="M1033.65 897.584C1033.65 896.98 1034.29 896.376 1034.92 896.376C1035.56 896.376 1036.19 896.98 1036.19 897.584C1036.19 898.187 1035.56 898.791 1034.92 898.791C1034.29 898.791 1033.65 898.187 1033.65 897.584Z" fill="white"/>
<path opacity="0.7" d="M871.848 945.882C871.848 945.278 872.482 944.674 873.117 944.674C873.751 944.674 874.386 945.278 874.386 945.882C874.386 946.486 873.751 947.089 873.117 947.089C872.482 947.089 871.848 946.486 871.848 945.882Z" fill="white"/>
<path opacity="0.7" d="M879.459 866.19C879.459 865.586 880.093 864.983 880.728 864.983C881.363 864.983 881.997 865.586 881.997 866.19C881.997 866.794 881.363 867.397 880.728 867.397C880.093 867.397 879.459 866.794 879.459 866.19Z" fill="white"/>
<path opacity="0.7" d="M945.451 974.861C945.451 974.258 946.086 973.654 946.72 973.654C947.355 973.654 947.989 974.258 947.989 974.861C947.989 975.465 947.355 976.069 946.72 976.069C946.086 976.673 945.451 976.069 945.451 974.861Z" fill="white"/>
<path opacity="0.7" d="M817.273 872.227C816.572 872.227 816.004 872.767 816.004 873.434C816.004 874.101 816.572 874.642 817.273 874.642C817.974 874.642 818.542 874.101 818.542 873.434C818.542 872.767 817.974 872.227 817.273 872.227Z" fill="white"/>
<path opacity="0.7" d="M979.08 1004.44C979.08 1003.84 979.715 1003.24 980.349 1003.24C980.984 1003.24 981.618 1003.84 981.618 1004.44C981.618 1005.05 980.984 1005.65 980.349 1005.65C979.715 1005.65 979.08 1005.05 979.08 1004.44Z" fill="white"/>
<path opacity="0.7" d="M1403.58 1018.33C1403.58 1016.52 1405.49 1014.71 1407.39 1014.71C1409.29 1014.71 1411.2 1016.52 1411.2 1018.33C1411.2 1020.14 1409.29 1021.95 1407.39 1021.95C1404.85 1021.95 1403.58 1020.14 1403.58 1018.33Z" fill="white"/>
<path opacity="0.7" d="M905.474 995.992C905.474 994.784 906.743 993.577 908.012 993.577C909.281 993.577 910.55 994.784 910.55 995.992C910.55 997.199 909.281 998.407 908.012 998.407C906.743 998.407 905.474 997.199 905.474 995.992Z" fill="white"/>
<path opacity="0.7" d="M927.05 868.605C927.05 867.398 928.319 866.19 929.588 866.19C930.857 866.19 932.126 867.398 932.126 868.605C932.126 869.813 930.857 871.02 929.588 871.02C927.684 871.02 927.05 869.813 927.05 868.605Z" fill="white"/>
<path opacity="0.7" d="M969.565 900.603C969.565 899.395 970.834 898.188 972.104 898.188C973.373 898.188 974.642 899.395 974.642 900.603C974.642 901.81 973.373 903.018 972.104 903.018C970.2 903.018 969.565 902.414 969.565 900.603Z" fill="white"/>
<path opacity="0.7" d="M1071.72 941.655C1071.72 940.448 1072.99 939.24 1074.26 939.24C1075.53 939.24 1076.8 940.448 1076.8 941.655C1076.8 942.863 1075.53 944.07 1074.26 944.07C1072.99 944.07 1071.72 943.467 1071.72 941.655Z" fill="white"/>
<path opacity="0.7" d="M1003.83 956.75C1003.83 955.542 1004.46 954.939 1005.73 954.939C1007 954.939 1007.64 955.542 1007.64 956.75C1007.64 957.957 1007 958.561 1005.73 958.561C1004.46 958.561 1003.83 957.354 1003.83 956.75Z" fill="white"/>
<path opacity="0.7" d="M1036.19 870.416C1036.19 869.208 1036.82 868.605 1038.09 868.605C1039.36 868.605 1040 869.208 1040 870.416C1040 871.623 1039.36 872.227 1038.09 872.227C1037.46 872.227 1036.19 871.623 1036.19 870.416Z" fill="white"/>
<path opacity="0.7" d="M922.606 911.47C922.606 910.262 923.24 909.658 924.509 909.658C925.779 909.658 926.413 910.262 926.413 911.47C926.413 912.677 925.779 913.281 924.509 913.281C923.875 913.281 922.606 912.677 922.606 911.47Z" fill="white"/>
<path opacity="0.7" d="M1079.34 878.264C1079.34 876.453 1081.24 874.642 1083.15 874.642C1085.05 874.642 1086.95 876.453 1086.95 878.264C1086.95 880.076 1085.05 881.887 1083.15 881.887C1080.61 881.887 1079.34 880.076 1079.34 878.264Z" fill="white"/>
<path opacity="0.7" d="M892.785 671.789C892.785 671.185 893.42 670.581 894.054 670.581C894.689 670.581 895.323 671.185 895.323 671.789C895.323 672.393 894.689 672.996 894.054 672.996C893.42 672.996 892.785 672.393 892.785 671.789Z" fill="white"/>
<path opacity="0.7" d="M1029.21 607.794C1029.21 606.586 1029.85 605.983 1031.11 605.983C1032.38 605.983 1033.02 606.586 1033.02 607.794C1033.02 609.001 1032.38 609.605 1031.11 609.605C1029.85 609.605 1029.21 609.001 1029.21 607.794Z" fill="white"/>
<path opacity="0.7" d="M836.947 969.428C836.947 968.825 837.582 968.221 838.216 968.221C838.851 968.221 839.485 968.825 839.485 969.428C839.485 970.032 838.851 970.636 838.216 970.636C837.582 970.636 836.947 970.032 836.947 969.428Z" fill="white"/>
<path opacity="0.7" d="M852.172 820.306C852.172 818.495 854.075 816.684 855.979 816.684C857.883 816.684 859.786 818.495 859.786 820.306C859.786 822.118 857.883 823.929 855.979 823.929C854.075 823.929 852.172 822.118 852.172 820.306Z" fill="white"/>
<path opacity="0.7" d="M816.64 875.849C816.64 874.642 817.909 873.434 819.178 873.434C820.447 873.434 821.716 874.642 821.716 875.849C821.716 877.057 820.447 878.264 819.178 878.264C817.274 878.264 816.64 877.057 816.64 875.849Z" fill="white"/>
<path opacity="0.7" d="M772.858 969.428C772.858 968.22 774.127 967.013 775.396 967.013C776.666 967.013 777.935 968.22 777.935 969.428C777.935 970.635 776.666 971.843 775.396 971.843C773.493 971.843 772.858 970.635 772.858 969.428Z" fill="white"/>
<path opacity="0.7" d="M793.798 807.025C793.798 805.817 795.067 804.61 796.336 804.61C797.605 804.61 798.874 805.817 798.874 807.025C798.874 808.232 797.605 809.439 796.336 809.439C795.067 809.439 793.798 808.232 793.798 807.025Z" fill="white"/>
<path opacity="0.7" d="M750.649 794.95C750.649 793.742 751.283 793.138 752.552 793.138C753.821 793.138 754.456 793.742 754.456 794.95C754.456 796.157 753.821 796.761 752.552 796.761C751.918 796.761 750.649 795.553 750.649 794.95Z" fill="white"/>
<path opacity="0.7" d="M566 864.982C566 865.586 565.366 866.189 564.731 866.189C564.097 866.189 563.462 865.586 563.462 864.982C563.462 864.378 564.097 863.775 564.731 863.775C565.366 863.171 566 863.775 566 864.982Z" fill="white"/>
<path opacity="0.7" d="M604.071 995.992C604.071 996.595 603.436 997.199 602.802 997.199C602.167 997.199 601.533 996.595 601.533 995.992C601.533 995.388 602.167 994.784 602.802 994.784C603.436 994.784 604.071 994.784 604.071 995.992Z" fill="white"/>
<path opacity="0.7" d="M699.251 837.21C699.251 837.814 698.616 838.417 697.982 838.417C697.347 838.417 696.713 837.814 696.713 837.21C696.713 836.606 697.347 836.003 697.982 836.003C698.616 836.003 699.251 836.606 699.251 837.21Z" fill="white"/>
<path opacity="0.7" d="M683.387 986.332C683.387 988.143 681.484 989.955 679.58 989.955C677.676 989.955 675.773 988.143 675.773 986.332C675.773 984.521 677.676 982.71 679.58 982.71C681.484 982.71 683.387 984.521 683.387 986.332Z" fill="white"/>
<path opacity="0.7" d="M571.075 945.278C571.075 946.486 569.806 947.693 568.537 947.693C567.267 947.693 565.998 946.486 565.998 945.278C565.998 944.071 567.267 942.864 568.537 942.864C569.806 942.864 571.075 944.071 571.075 945.278Z" fill="white"/>
<path opacity="0.7" d="M596.456 753.293C596.456 753.896 595.821 754.5 595.186 754.5C594.552 754.5 593.917 753.896 593.917 753.293C593.917 752.689 594.552 752.085 595.186 752.085C595.821 752.085 596.456 752.689 596.456 753.293Z" fill="white"/>
<path opacity="0.7" d="M571.075 624.094C571.075 625.302 569.806 626.509 568.537 626.509C567.267 626.509 565.998 625.302 565.998 624.094C565.998 622.887 567.267 621.679 568.537 621.679C569.806 621.679 571.075 622.283 571.075 624.094Z" fill="white"/>
<path opacity="0.7" d="M1158.02 962.787C1158.02 963.391 1157.38 963.995 1156.75 963.995C1156.11 963.995 1155.48 963.391 1155.48 962.787C1155.48 962.183 1156.11 961.58 1156.75 961.58C1157.38 961.58 1158.02 962.183 1158.02 962.787Z" fill="white"/>
<path opacity="0.7" d="M680.215 919.318C680.215 920.525 678.946 921.733 677.677 921.733C676.408 921.733 675.139 920.525 675.139 919.318C675.139 918.111 676.408 916.903 677.677 916.903C678.946 916.903 680.215 918.111 680.215 919.318Z" fill="white"/>
<path opacity="0.7" d="M741.767 999.614C741.767 1000.82 740.498 1002.03 739.229 1002.03C737.959 1002.03 736.69 1000.82 736.69 999.614C736.69 998.407 737.959 997.199 739.229 997.199C740.498 997.199 741.767 998.407 741.767 999.614Z" fill="white"/>
<path opacity="0.7" d="M741.767 677.826C741.767 679.033 740.498 680.241 739.229 680.241C737.959 680.241 736.69 679.033 736.69 677.826C736.69 676.618 737.959 675.411 739.229 675.411C741.132 675.411 741.767 676.618 741.767 677.826Z" fill="white"/>
<path opacity="0.7" d="M734.151 741.218C734.151 743.029 732.248 744.84 730.344 744.84C728.441 744.84 726.537 743.029 726.537 741.218C726.537 739.407 728.441 737.595 730.344 737.595C732.882 738.199 734.151 739.407 734.151 741.218Z" fill="white"/>
<path opacity="0.7" d="M261.43 750.878C261.43 749.671 262.065 749.067 263.334 749.067C264.603 749.067 265.237 749.671 265.237 750.878C265.237 752.086 264.603 752.689 263.334 752.689C262.699 752.689 261.43 752.086 261.43 750.878Z" fill="white"/>
<path opacity="0.7" d="M302.035 755.103C302.035 754.5 302.67 753.896 303.304 753.896C303.939 753.896 304.573 754.5 304.573 755.103C304.573 755.707 303.939 756.311 303.304 756.311C302.67 756.311 302.035 755.707 302.035 755.103Z" fill="white"/>
<path opacity="0.7" d="M183.381 750.877C183.381 750.273 184.015 749.669 184.65 749.669C185.284 749.669 185.919 750.273 185.919 750.877C185.919 751.48 185.284 752.084 184.65 752.084C184.015 752.688 183.381 752.084 183.381 750.877Z" fill="white"/>
<path opacity="0.7" d="M263.963 624.094C263.963 623.49 264.597 622.886 265.232 622.886C265.866 622.886 266.501 623.49 266.501 624.094C266.501 624.698 265.866 625.301 265.232 625.301C264.597 625.301 263.963 624.698 263.963 624.094Z" fill="white"/>
<path opacity="0.7" d="M1262.08 935.619C1262.08 935.015 1262.72 934.411 1263.35 934.411C1263.99 934.411 1264.62 935.015 1264.62 935.619C1264.62 936.222 1263.99 936.826 1263.35 936.826C1262.72 937.43 1262.08 936.826 1262.08 935.619Z" fill="white"/>
<path opacity="0.7" d="M27.2833 704.39C27.2833 703.786 27.9178 703.182 28.5523 703.182C29.1868 703.182 29.8213 703.786 29.8213 704.39C29.8213 704.993 29.1868 705.597 28.5523 705.597C27.9178 706.201 27.2833 705.597 27.2833 704.39Z" fill="white"/>
<path opacity="0.7" d="M169.422 782.272C169.422 781.668 170.056 781.064 170.691 781.064C171.325 781.064 171.96 781.668 171.96 782.272C171.96 782.875 171.325 783.479 170.691 783.479C170.056 783.479 169.422 782.875 169.422 782.272Z" fill="white"/>
<path opacity="0.7" d="M311.553 814.269C311.553 813.665 312.187 813.062 312.822 813.062C313.456 813.062 314.091 813.665 314.091 814.269C314.091 814.873 313.456 815.477 312.822 815.477C312.187 815.477 311.553 814.873 311.553 814.269Z" fill="white"/>
<path opacity="0.7" d="M335.034 733.369C335.034 732.161 335.668 731.558 336.937 731.558C338.206 731.558 338.841 732.161 338.841 733.369C338.841 734.576 338.206 735.18 336.937 735.18C336.303 735.18 335.034 734.576 335.034 733.369Z" fill="white"/>
<path opacity="0.7" d="M1431.51 965.201C1431.51 963.39 1433.41 961.579 1435.31 961.579C1437.22 961.579 1439.12 963.39 1439.12 965.201C1439.12 967.013 1437.22 968.824 1435.31 968.824C1432.77 968.22 1431.51 967.013 1431.51 965.201Z" fill="white"/>
<path opacity="0.7" d="M442.264 782.271C442.264 781.064 443.533 779.856 444.802 779.856C446.071 779.856 447.34 781.064 447.34 782.271C447.34 783.479 446.071 784.686 444.802 784.686C443.533 784.686 442.264 783.479 442.264 782.271Z" fill="white"/>
<path opacity="0.7" d="M340.11 797.364C340.11 796.157 341.379 794.949 342.648 794.949C343.917 794.949 345.187 796.157 345.187 797.364C345.187 798.572 343.917 799.779 342.648 799.779C341.379 799.779 340.11 798.572 340.11 797.364Z" fill="white"/>
<path opacity="0.7" d="M427.036 1022.56C427.036 1021.95 427.671 1021.35 428.306 1021.35C428.94 1021.35 429.575 1021.95 429.575 1022.56C429.575 1023.16 428.94 1023.76 428.306 1023.76C427.671 1024.37 427.036 1023.76 427.036 1022.56Z" fill="white"/>
<path opacity="0.7" d="M163.076 967.617C163.076 967.013 163.711 966.41 164.345 966.41C164.98 966.41 165.614 967.013 165.614 967.617C165.614 968.221 164.98 968.825 164.345 968.825C163.711 969.428 163.076 968.825 163.076 967.617Z" fill="white"/>
<path opacity="0.7" d="M263.963 945.882C263.963 945.278 264.597 944.674 265.232 944.674C265.866 944.674 266.501 945.278 266.501 945.882C266.501 946.486 265.866 947.089 265.232 947.089C264.597 947.089 263.963 946.486 263.963 945.882Z" fill="white"/>
<path opacity="0.7" d="M271.578 866.19C271.578 865.586 272.213 864.983 272.847 864.983C273.482 864.983 274.116 865.586 274.116 866.19C274.116 866.794 273.482 867.397 272.847 867.397C272.213 867.397 271.578 866.794 271.578 866.19Z" fill="white"/>
<path opacity="0.7" d="M337.572 974.861C337.572 974.258 338.207 973.654 338.841 973.654C339.476 973.654 340.11 974.258 340.11 974.861C340.11 975.465 339.476 976.069 338.841 976.069C338.207 976.673 337.572 976.069 337.572 974.861Z" fill="white"/>
<path opacity="0.7" d="M208.125 873.434C208.125 872.83 208.76 872.227 209.394 872.227C210.029 872.227 210.663 872.83 210.663 873.434C210.663 874.038 210.029 874.642 209.394 874.642C208.76 874.642 208.125 874.038 208.125 873.434Z" fill="white"/>
<path opacity="0.7" d="M371.201 1004.44C371.201 1003.84 371.836 1003.24 372.47 1003.24C373.105 1003.24 373.739 1003.84 373.739 1004.44C373.739 1005.05 373.105 1005.65 372.47 1005.65C371.836 1005.65 371.201 1005.05 371.201 1004.44Z" fill="white"/>
<path opacity="0.7" d="M296.962 995.992C296.962 994.784 298.231 993.577 299.5 993.577C300.769 993.577 302.038 994.784 302.038 995.992C302.038 997.199 300.769 998.407 299.5 998.407C298.231 998.407 296.962 997.199 296.962 995.992Z" fill="white"/>
<path opacity="0.7" d="M318.532 868.605C318.532 867.398 319.801 866.19 321.07 866.19C322.339 866.19 323.608 867.398 323.608 868.605C323.608 869.813 322.339 871.02 321.07 871.02C319.801 871.02 318.532 869.813 318.532 868.605Z" fill="white"/>
<path opacity="0.7" d="M361.048 900.603C361.048 899.395 362.317 898.188 363.586 898.188C364.855 898.188 366.124 899.395 366.124 900.603C366.124 901.81 364.855 903.018 363.586 903.018C362.317 903.018 361.048 902.414 361.048 900.603Z" fill="white"/>
<path opacity="0.7" d="M463.208 941.655C463.208 940.448 464.477 939.24 465.746 939.24C467.015 939.24 468.284 940.448 468.284 941.655C468.284 942.863 467.015 944.07 465.746 944.07C464.477 944.07 463.208 943.467 463.208 941.655Z" fill="white"/>
<path opacity="0.7" d="M395.946 956.75C395.946 955.542 396.58 954.939 397.849 954.939C399.118 954.939 399.753 955.542 399.753 956.75C399.753 957.957 399.118 958.561 397.849 958.561C396.58 958.561 395.946 957.354 395.946 956.75Z" fill="white"/>
<path opacity="0.7" d="M281.734 718.881C281.734 718.277 282.369 717.673 283.003 717.673C283.638 717.673 284.272 718.277 284.272 718.881C284.272 719.485 283.638 720.088 283.003 720.088C282.369 720.692 281.734 720.088 281.734 718.881Z" fill="white"/>
<path opacity="0.7" d="M657.373 674.807C657.373 673.6 658.643 672.392 659.912 672.392C661.181 672.392 662.45 673.6 662.45 674.807C662.45 676.015 661.181 677.222 659.912 677.222C658.643 677.222 657.373 676.618 657.373 674.807Z" fill="white"/>
<path opacity="0.7" d="M163.076 620.472C163.076 619.869 163.711 619.265 164.345 619.265C164.98 619.265 165.614 619.869 165.614 620.472C165.614 621.076 164.98 621.68 164.345 621.68C163.711 621.68 163.076 621.076 163.076 620.472Z" fill="white"/>
<path opacity="0.7" d="M420.691 607.794C420.691 606.586 421.326 605.983 422.595 605.983C423.864 605.983 424.499 606.586 424.499 607.794C424.499 609.001 423.864 609.605 422.595 609.605C421.326 609.605 420.691 609.001 420.691 607.794Z" fill="white"/>
<path opacity="0.7" d="M43.1463 898.792C43.1463 898.188 43.7809 897.584 44.4155 897.584C45.05 897.584 45.6846 898.188 45.6846 898.792C45.6846 899.395 45.05 899.999 44.4155 899.999C43.7809 900.603 43.1463 899.999 43.1463 898.792Z" fill="white"/>
<path opacity="0.7" d="M6.8903e-05 653.677C6.8903e-05 653.073 0.634563 652.469 1.26908 652.469C1.90359 652.469 2.53809 653.073 2.53809 653.677C2.53809 654.281 1.90359 654.884 1.26908 654.884C0.634563 654.884 6.8903e-05 654.281 6.8903e-05 653.677Z" fill="white"/>
<path opacity="0.7" d="M131.347 749.67C131.347 748.463 132.616 747.255 133.885 747.255C135.154 747.255 136.423 748.463 136.423 749.67C136.423 750.878 135.154 752.085 133.885 752.085C132.616 752.085 131.347 750.878 131.347 749.67Z" fill="white"/>
<path opacity="0.7" d="M105.333 782.271C105.333 781.064 106.602 779.856 107.871 779.856C109.14 779.856 110.409 781.064 110.409 782.271C110.409 783.479 109.14 784.686 107.871 784.686C105.967 784.686 105.333 783.479 105.333 782.271Z" fill="white"/>
<path opacity="0.7" d="M126.27 620.471C126.27 619.263 127.539 618.056 128.808 618.056C130.078 618.056 131.347 619.263 131.347 620.471C131.347 621.678 130.078 622.886 128.808 622.886C127.539 622.886 126.27 621.678 126.27 620.471Z" fill="white"/>
<path opacity="0.7" d="M3.17494 797.364C3.17494 796.157 4.44393 794.949 5.71296 794.949C6.98199 794.949 8.25098 796.157 8.25098 797.364C8.25098 798.572 6.98199 799.779 5.71296 799.779C3.80942 799.779 3.17494 798.572 3.17494 797.364Z" fill="white"/>
<path opacity="0.7" d="M58.3775 634.961C58.3775 633.754 59.012 633.15 60.2811 633.15C61.5501 633.15 62.1846 633.754 62.1846 634.961C62.1846 636.168 61.5501 636.772 60.2811 636.772C59.012 636.772 58.3775 636.168 58.3775 634.961Z" fill="white"/>
<path opacity="0.7" d="M54.5687 827.55C54.5687 826.343 55.2033 825.739 56.4724 825.739C57.7414 825.739 58.376 826.343 58.376 827.55C58.376 828.758 57.7414 829.361 56.4724 829.361C55.2033 829.361 54.5687 828.758 54.5687 827.55Z" fill="white"/>
<path opacity="0.7" d="M27.2833 383.262C27.2833 382.659 27.9178 382.055 28.5523 382.055C29.1868 382.055 29.8213 382.659 29.8213 383.262C29.8213 383.866 29.1868 384.47 28.5523 384.47C27.9178 385.074 27.2833 384.47 27.2833 383.262Z" fill="white"/>
<path opacity="0.7" d="M43.1463 577.663C43.1463 577.06 43.7809 576.456 44.4155 576.456C45.05 576.456 45.6846 577.06 45.6846 577.663C45.6846 578.267 45.05 578.871 44.4155 578.871C43.7809 579.475 43.1463 578.871 43.1463 577.663Z" fill="white"/>
<path opacity="0.7" d="M131.347 428.542C131.347 427.335 132.616 426.127 133.885 426.127C135.154 426.127 136.423 427.335 136.423 428.542C136.423 429.75 135.154 430.957 133.885 430.957C132.616 430.957 131.347 429.75 131.347 428.542Z" fill="white"/>
<path opacity="0.7" d="M105.333 461.143C105.333 459.936 106.602 458.728 107.871 458.728C109.14 458.728 110.409 459.936 110.409 461.143C110.409 462.351 109.14 463.558 107.871 463.558C105.967 463.558 105.333 462.351 105.333 461.143Z" fill="white"/>
<path opacity="0.7" d="M3.17494 476.236C3.17494 475.029 4.44393 473.822 5.71296 473.822C6.98199 473.822 8.25098 475.029 8.25098 476.236C8.25098 477.444 6.98199 478.651 5.71296 478.651C3.80942 478.651 3.17494 477.444 3.17494 476.236Z" fill="white"/>
<path opacity="0.7" d="M54.5687 506.423C54.5687 505.216 55.2033 504.612 56.4724 504.612C57.7414 504.612 58.376 505.216 58.376 506.423C58.376 507.631 57.7414 508.234 56.4724 508.234C55.2033 508.234 54.5687 507.631 54.5687 506.423Z" fill="white"/>
<path opacity="0.7" d="M89.4667 1022.56C89.4667 1021.95 90.1012 1021.35 90.7358 1021.35C91.3703 1021.35 92.0049 1021.95 92.0049 1022.56C92.0049 1023.16 91.3703 1023.76 90.7358 1023.76C90.1012 1024.37 89.4667 1023.76 89.4667 1022.56Z" fill="white"/>
<path opacity="0.7" d="M6.8903e-05 974.861C6.8903e-05 974.258 0.634563 973.654 1.26908 973.654C1.90359 973.654 2.53809 974.258 2.53809 974.861C2.53809 975.465 1.90359 976.069 1.26908 976.069C0.634563 976.673 6.8903e-05 976.069 6.8903e-05 974.861Z" fill="white"/>
<path opacity="0.7" d="M33.6288 1004.44C33.6288 1003.84 34.2634 1003.24 34.898 1003.24C35.5325 1003.24 36.167 1003.84 36.167 1004.44C36.167 1005.05 35.5325 1005.65 34.898 1005.65C34.2634 1005.65 33.6288 1005.05 33.6288 1004.44Z" fill="white"/>
<path opacity="0.7" d="M814.101 652.469C814.101 650.658 816.005 648.847 817.909 648.847C819.812 648.847 821.716 650.658 821.716 652.469C821.716 654.28 819.812 656.091 817.909 656.091C815.37 655.488 814.101 654.28 814.101 652.469Z" fill="white"/>
<g opacity="0.7">
<path opacity="0.7" d="M742.399 922.337L741.764 909.659L727.805 908.452L741.13 907.848L742.399 894.566L743.668 907.848L756.993 908.452L743.668 909.659L742.399 922.337Z" fill="white"/>
<path opacity="0.7" d="M736.689 914.488L741.131 909.055L736.689 903.017L742.4 907.847L748.745 902.414L743.669 908.451L748.745 914.488L742.4 909.658L736.689 914.488Z" fill="white"/>
</g>
<g opacity="0.7">
<path opacity="0.7" d="M880.407 948.297L878.613 927.604L859.782 925.633L878.613 924.648L880.407 902.969L882.2 924.648L901.032 925.633L882.2 927.604L880.407 948.297Z" fill="white"/>
<path opacity="0.7" d="M872.338 935.487L878.615 925.633L872.338 916.764L880.408 923.662L889.376 915.779L881.305 925.633L889.376 934.501L880.408 927.604L872.338 935.487Z" fill="white"/>
</g>
<g opacity="0.7">
<path opacity="0.7" d="M794.43 615.038L793.796 606.586L784.278 605.378H793.796L794.43 595.718L795.065 605.378H804.583L795.065 606.586L794.43 615.038Z" fill="white"/>
<path opacity="0.7" d="M790.621 609.604L793.794 605.982L790.621 601.756L794.428 605.378L798.87 601.756L795.063 605.982L798.87 609.604L794.428 606.586L790.621 609.604Z" fill="white"/>
</g>
<g opacity="0.7">
<path opacity="0.7" d="M1111.06 965.806L1110.43 957.353L1100.91 956.146H1109.79L1111.06 946.486L1111.7 956.146H1121.22L1111.7 957.353L1111.06 965.806Z" fill="white"/>
<path opacity="0.7" d="M1106.62 960.372L1109.79 956.75L1106.62 952.524L1111.06 955.542L1115.5 952.524L1111.7 956.146L1115.5 960.372L1111.06 957.353L1106.62 960.372Z" fill="white"/>
</g>
<g opacity="0.7">
<path opacity="0.7" d="M520.948 975.466L520.313 967.014L510.795 965.806H520.313L520.948 956.146L521.582 965.806H531.1L521.582 967.014L520.948 975.466Z" fill="white"/>
<path opacity="0.7" d="M516.504 970.033L520.311 966.411L516.504 962.185L520.946 965.203L525.387 962.185L521.58 965.807L525.387 970.033L520.946 967.015L516.504 970.033Z" fill="white"/>
</g>
<g opacity="0.7">
<path opacity="0.7" d="M236.825 647.806L233.876 623.398L201.318 620.019L233.899 619.733L237.179 591.605L240.105 619.678L272.686 619.392L240.082 623.344L236.825 647.806Z" fill="white"/>
<path opacity="0.7" d="M222.306 633.254L233.363 620.943L222.48 608.828L236.515 618.473L252.257 608.563L238.065 620.901L252.092 631.768L236.48 623.358L222.306 633.254Z" fill="white"/>
</g>
<g opacity="0.7">
<path opacity="0.7" d="M156.725 965.806L156.091 957.353L146.573 956.146H156.091L156.725 946.486L157.36 956.146H166.878L157.36 957.353L156.725 965.806Z" fill="white"/>
<path opacity="0.7" d="M152.916 960.372L156.089 956.75L152.916 952.524L156.723 955.542L161.165 952.524L157.358 956.146L161.165 960.372L156.723 957.353L152.916 960.372Z" fill="white"/>
</g>
<g opacity="0.7">
<path opacity="0.7" d="M359.141 764.763L358.507 755.707L348.989 755.104L358.507 754.5L359.141 745.444L359.776 754.5L369.294 755.104L359.776 755.707L359.141 764.763Z" fill="white"/>
<path opacity="0.7" d="M355.334 759.33L358.507 755.104L355.334 750.878L359.141 754.5L363.583 750.878L359.776 755.104L363.583 758.726L359.141 755.707L355.334 759.33Z" fill="white"/>
</g>
<g opacity="0.7">
<path opacity="0.7" d="M493.664 708.615L493.03 699.56L483.512 698.956L493.03 698.352L493.664 689.296L494.299 698.352L503.817 698.956L494.299 699.56L493.664 708.615Z" fill="white"/>
<path opacity="0.7" d="M489.855 703.182L493.028 698.956L489.855 694.73L493.662 698.352L498.104 694.73L494.297 698.956L498.104 702.578L493.662 699.56L489.855 703.182Z" fill="white"/>
</g>
<g opacity="0.7">
<path opacity="0.7" d="M435.918 947.693L434.649 939.241L425.766 938.033H434.649L435.918 928.373L436.553 938.033H446.071L436.553 939.241L435.918 947.693Z" fill="white"/>
<path opacity="0.7" d="M431.475 942.259L434.647 938.637L431.475 934.411L435.282 937.429L440.358 934.411L436.551 938.033L440.358 942.259L435.916 939.241L431.475 942.259Z" fill="white"/>
</g>
<path opacity="0.7" d="M222.252 280.822C222.252 282.029 221.617 282.633 220.348 282.633C219.079 282.633 218.444 282.029 218.444 280.822C218.444 279.614 219.079 279.011 220.348 279.011C220.982 279.011 222.252 279.614 222.252 280.822Z" fill="white"/>
<path opacity="0.7" d="M300.191 284.837C300.191 285.441 299.557 286.045 298.922 286.045C298.288 286.045 297.653 285.441 297.653 284.837C297.653 284.234 298.288 283.63 298.922 283.63C299.557 283.026 300.191 283.63 300.191 284.837Z" fill="white"/>
<path opacity="0.7" d="M140.752 374.031C140.752 374.635 140.117 375.239 139.483 375.239C138.848 375.239 138.214 374.635 138.214 374.031C138.214 373.428 138.848 372.824 139.483 372.824C140.117 372.824 140.752 373.428 140.752 374.031Z" fill="white"/>
<path opacity="0.7" d="M1023.09 345.346C1023.09 345.95 1022.46 346.554 1021.82 346.554C1021.19 346.554 1020.56 345.95 1020.56 345.346C1020.56 344.742 1021.19 344.139 1021.82 344.139C1022.46 344.139 1023.09 344.742 1023.09 345.346Z" fill="white"/>
<path opacity="0.7" d="M320.701 213.938C320.701 214.541 320.067 215.145 319.432 215.145C318.798 215.145 318.163 214.541 318.163 213.938C318.163 213.334 318.798 212.73 319.432 212.73C320.067 212.73 320.701 213.334 320.701 213.938Z" fill="white"/>
<path opacity="0.7" d="M315.891 254.199C315.891 254.803 315.256 255.407 314.622 255.407C313.987 255.407 313.353 254.803 313.353 254.199C313.353 253.595 313.987 252.992 314.622 252.992C315.256 252.992 315.891 253.595 315.891 254.199Z" fill="white"/>
<path opacity="0.7" d="M385.4 46.713C385.4 47.9205 384.765 48.5242 383.496 48.5242C382.227 48.5242 381.593 47.9205 381.593 46.713C381.593 45.5056 382.227 44.9019 383.496 44.9019C384.765 44.9019 385.4 46.1093 385.4 46.713Z" fill="white"/>
<path opacity="0.7" d="M376.38 330.986C376.38 332.193 375.111 333.401 373.842 333.401C372.573 333.401 371.304 332.193 371.304 330.986C371.304 329.778 372.573 328.571 373.842 328.571C375.745 328.571 376.38 329.778 376.38 330.986Z" fill="white"/>
<path opacity="0.7" d="M281.239 23.2223C281.239 24.4298 279.97 25.6372 278.701 25.6372C277.432 25.6372 276.163 24.4298 276.163 23.2223C276.163 22.0148 277.432 20.8074 278.701 20.8074C279.97 20.8074 281.239 21.4111 281.239 23.2223Z" fill="white"/>
<path opacity="0.7" d="M59.6046 212.627C59.6046 213.834 58.3355 215.042 57.0664 215.042C55.7974 215.042 54.5283 213.834 54.5283 212.627C54.5283 211.419 55.7974 210.212 57.0664 210.212C58.3355 210.212 59.6046 211.419 59.6046 212.627Z" fill="white"/>
<path opacity="0.7" d="M12.796 400.684C12.796 401.891 11.5269 403.099 10.2579 403.099C8.98879 403.099 7.71973 401.891 7.71973 400.684C7.71973 399.476 8.98879 398.269 10.2579 398.269C12.1615 398.269 12.796 399.476 12.796 400.684Z" fill="white"/>
<path opacity="0.7" d="M146.298 230.356C146.298 231.564 145.029 232.771 143.76 232.771C142.491 232.771 141.222 231.564 141.222 230.356C141.222 229.149 142.491 227.941 143.76 227.941C145.029 227.941 146.298 229.149 146.298 230.356Z" fill="white"/>
<path opacity="0.7" d="M81.4097 389.71C81.4097 390.918 80.7752 391.521 79.5061 391.521C78.2371 391.521 77.6025 390.918 77.6025 389.71C77.6025 388.503 78.2371 387.899 79.5061 387.899C80.7752 387.899 81.4097 388.503 81.4097 389.71Z" fill="white"/>
<path opacity="0.7" d="M128.568 150.28C128.568 151.488 127.933 152.092 126.664 152.092C125.395 152.092 124.761 151.488 124.761 150.28C124.761 149.073 125.395 148.469 126.664 148.469C127.933 148.469 128.568 149.677 128.568 150.28Z" fill="white"/>
<path opacity="0.7" d="M808.586 137.289C808.586 137.892 807.951 138.496 807.317 138.496C806.682 138.496 806.048 137.892 806.048 137.289C806.048 136.685 806.682 136.081 807.317 136.081C807.951 136.081 808.586 136.081 808.586 137.289Z" fill="white"/>
<path opacity="0.7" d="M230.684 86.0019C230.684 86.6056 230.049 87.2094 229.415 87.2094C228.78 87.2094 228.146 86.6056 228.146 86.0019C228.146 85.3982 228.78 84.7944 229.415 84.7944C230.049 84.7944 230.684 85.3982 230.684 86.0019Z" fill="white"/>
<path opacity="0.7" d="M282.367 161.193C282.367 161.797 281.733 162.401 281.098 162.401C280.464 162.401 279.829 161.797 279.829 161.193C279.829 160.59 280.464 159.986 281.098 159.986C281.733 159.986 282.367 160.59 282.367 161.193Z" fill="white"/>
<path opacity="0.7" d="M165.246 424.256C165.246 424.86 164.612 425.463 163.977 425.463C163.343 425.463 162.708 424.86 162.708 424.256C162.708 423.652 163.343 423.048 163.977 423.048C164.612 423.048 165.246 423.652 165.246 424.256Z" fill="white"/>
<path opacity="0.7" d="M200.55 34.215C200.55 35.4224 199.281 36.6299 198.012 36.6299C196.743 36.6299 195.474 35.4224 195.474 34.215C195.474 33.0075 196.743 31.8 198.012 31.8C199.281 31.8 200.55 33.0075 200.55 34.215Z" fill="white"/>
<path opacity="0.7" d="M741.038 118.053C741.038 119.261 739.769 120.468 738.5 120.468C737.231 120.468 735.962 119.261 735.962 118.053C735.962 116.846 737.231 115.638 738.5 115.638C740.404 115.638 741.038 116.242 741.038 118.053Z" fill="white"/>
<path opacity="0.7" d="M16.6304 366.45C16.6304 367.657 15.9959 368.261 14.7268 368.261C13.4578 368.261 12.8232 367.657 12.8232 366.45C12.8232 365.242 13.4578 364.638 14.7268 364.638C15.9959 364.638 16.6304 365.242 16.6304 366.45Z" fill="white"/>
<path opacity="0.7" d="M310.104 379.531C310.104 381.342 308.2 383.154 306.296 383.154C304.393 383.154 302.489 381.342 302.489 379.531C302.489 377.72 304.393 375.909 306.296 375.909C308.2 376.513 310.104 377.72 310.104 379.531Z" fill="white"/>
<path opacity="0.7" d="M200.182 311.771C200.182 312.374 199.547 312.978 198.913 312.978C198.278 312.978 197.644 312.374 197.644 311.771C197.644 311.167 198.278 310.563 198.913 310.563C199.547 309.96 200.182 310.563 200.182 311.771Z" fill="white"/>
<path opacity="0.7" d="M272.445 416.431C272.445 417.035 271.811 417.639 271.176 417.639C270.542 417.639 269.907 417.035 269.907 416.431C269.907 415.827 270.542 415.224 271.176 415.224C271.811 415.224 272.445 415.827 272.445 416.431Z" fill="white"/>
<path opacity="0.7" d="M892.225 310.849C892.225 311.453 891.59 312.056 890.956 312.056C890.321 312.056 889.687 311.453 889.687 310.849C889.687 310.245 890.321 309.641 890.956 309.641C891.59 309.641 892.225 310.245 892.225 310.849Z" fill="white"/>
<path opacity="0.7" d="M922.877 443.612C922.877 444.216 922.242 444.82 921.608 444.82C920.973 444.82 920.339 444.216 920.339 443.612C920.339 443.008 920.973 442.405 921.608 442.405C922.242 442.405 922.877 443.008 922.877 443.612Z" fill="white"/>
<path opacity="0.7" d="M731.963 426.001C731.963 426.604 731.328 427.208 730.694 427.208C730.059 427.208 729.425 426.604 729.425 426.001C729.425 425.397 730.059 424.793 730.694 424.793C731.328 424.793 731.963 425.397 731.963 426.001Z" fill="white"/>
<path opacity="0.7" d="M1001.68 387.178C1001.68 387.782 1001.05 388.386 1000.41 388.386C999.778 388.386 999.144 387.782 999.144 387.178C999.144 386.574 999.778 385.971 1000.41 385.971C1001.05 385.367 1001.68 385.971 1001.68 387.178Z" fill="white"/>
<path opacity="0.7" d="M892.751 391.827C892.751 393.035 891.482 394.242 890.213 394.242C888.944 394.242 887.675 393.035 887.675 391.827C887.675 390.62 888.944 389.412 890.213 389.412C891.482 389.412 892.751 390.62 892.751 391.827Z" fill="white"/>
<path opacity="0.7" d="M856.585 266.642C856.585 267.849 855.316 269.057 854.047 269.057C852.778 269.057 851.509 267.849 851.509 266.642C851.509 265.434 852.778 264.227 854.047 264.227C855.316 264.227 856.585 265.434 856.585 266.642Z" fill="white"/>
<path opacity="0.7" d="M888.551 455.16C888.551 455.764 887.916 456.368 887.282 456.368C886.647 456.368 886.013 455.764 886.013 455.16C886.013 454.557 886.647 453.953 887.282 453.953C887.916 453.953 888.551 454.557 888.551 455.16Z" fill="white"/>
<path opacity="0.7" d="M940.969 122.287C940.969 122.89 940.334 123.494 939.7 123.494C939.065 123.494 938.431 122.89 938.431 122.287C938.431 121.683 939.065 121.079 939.7 121.079C940.334 121.079 940.969 121.683 940.969 122.287Z" fill="white"/>
<path opacity="0.7" d="M928.883 201.476C928.883 202.08 928.248 202.684 927.614 202.684C926.979 202.684 926.345 202.08 926.345 201.476C926.345 200.873 926.979 200.269 927.614 200.269C928.248 200.269 928.883 200.873 928.883 201.476Z" fill="white"/>
<path opacity="0.7" d="M869.107 89.5937C869.107 90.1974 868.473 90.8012 867.838 90.8012C867.204 90.8012 866.569 90.1974 866.569 89.5937C866.569 88.99 867.204 88.3863 867.838 88.3863C868.473 87.7825 869.107 88.3863 869.107 89.5937Z" fill="white"/>
<path opacity="0.7" d="M910.843 70.5019C910.843 71.7093 909.574 72.9168 908.305 72.9168C907.036 72.9168 905.767 71.7093 905.767 70.5019C905.767 69.2944 907.036 68.0869 908.305 68.0869C909.574 68.0869 910.843 69.2944 910.843 70.5019Z" fill="white"/>
<path opacity="0.7" d="M794.173 246.524C794.173 247.732 792.904 248.939 791.635 248.939C790.366 248.939 789.097 247.732 789.097 246.524C789.097 245.317 790.366 244.109 791.635 244.109C792.904 244.109 794.173 245.317 794.173 246.524Z" fill="white"/>
<path opacity="0.7" d="M755.928 338.953C755.928 339.556 755.293 340.16 754.659 340.16C754.024 340.16 753.39 339.556 753.39 338.953C753.39 338.349 754.024 337.745 754.659 337.745C755.293 337.745 755.928 338.349 755.928 338.953Z" fill="white"/>
<path opacity="0.7" d="M55.1695 415.577C55.1695 416.785 54.535 417.388 53.2659 417.388C51.9968 417.388 51.3623 416.785 51.3623 415.577C51.3623 414.37 51.9968 413.766 53.2659 413.766C54.535 413.766 55.1695 414.37 55.1695 415.577Z" fill="white"/>
<path opacity="0.7" d="M562.441 299.313C562.441 301.124 560.538 302.935 558.634 302.935C556.73 302.935 554.827 301.124 554.827 299.313C554.827 297.502 556.73 295.69 558.634 295.69C560.538 296.294 562.441 297.502 562.441 299.313Z" fill="white"/>
<path opacity="0.7" d="M518.388 291.752C518.388 292.355 517.754 292.959 517.119 292.959C516.485 292.959 515.85 292.355 515.85 291.752C515.85 291.148 516.485 290.544 517.119 290.544C517.754 290.544 518.388 291.148 518.388 291.752Z" fill="white"/>
<path opacity="0.7" d="M448.539 144.289C448.539 144.893 447.904 145.496 447.27 145.496C446.635 145.496 446 144.893 446 144.289C446 143.685 446.635 143.082 447.27 143.082C447.904 142.478 448.539 143.082 448.539 144.289Z" fill="white"/>
<path opacity="0.7" d="M549.671 424.547C549.671 425.151 549.037 425.754 548.402 425.754C547.768 425.754 547.133 425.151 547.133 424.547C547.133 423.943 547.768 423.339 548.402 423.339C549.037 423.339 549.671 423.943 549.671 424.547Z" fill="white"/>
<path opacity="0.7" d="M477.835 391.253C477.835 391.856 477.201 392.46 476.566 392.46C475.932 392.46 475.297 391.856 475.297 391.253C475.297 390.649 475.932 390.045 476.566 390.045C477.201 390.045 477.835 390.649 477.835 391.253Z" fill="white"/>
<path opacity="0.7" d="M642.964 449.265C642.964 449.868 642.33 450.472 641.695 450.472C641.061 450.472 640.426 449.868 640.426 449.265C640.426 448.661 641.061 448.057 641.695 448.057C642.33 448.057 642.964 448.661 642.964 449.265Z" fill="white"/>
<path opacity="0.7" d="M445.255 360.566C445.255 361.17 444.621 361.774 443.986 361.774C443.352 361.774 442.717 361.17 442.717 360.566C442.717 359.963 443.352 359.359 443.986 359.359C444.621 358.755 445.255 359.359 445.255 360.566Z" fill="white"/>
<path opacity="0.7" d="M652.976 271.419C652.976 272.023 652.342 272.627 651.707 272.627C651.073 272.627 650.438 272.023 650.438 271.419C650.438 270.816 651.073 270.212 651.707 270.212C652.342 270.212 652.976 270.816 652.976 271.419Z" fill="white"/>
<path opacity="0.7" d="M512.211 232.185C512.211 232.789 511.576 233.392 510.941 233.392C510.307 233.392 509.672 232.789 509.672 232.185C509.672 231.581 510.307 230.978 510.941 230.978C511.576 230.978 512.211 231.581 512.211 232.185Z" fill="white"/>
<path opacity="0.7" d="M352.079 288.632C352.079 289.839 350.81 291.047 349.541 291.047C348.272 291.047 347.003 289.839 347.003 288.632C347.003 287.424 348.272 286.217 349.541 286.217C350.81 286.217 352.079 287.424 352.079 288.632Z" fill="white"/>
<path opacity="0.7" d="M379.89 257.404C379.89 258.611 378.621 259.819 377.352 259.819C376.083 259.819 374.813 258.611 374.813 257.404C374.813 256.196 376.083 254.989 377.352 254.989C378.621 254.989 379.89 256.196 379.89 257.404Z" fill="white"/>
<path opacity="0.7" d="M349.884 417.904C349.884 419.112 348.615 420.319 347.346 420.319C346.077 420.319 344.808 419.112 344.808 417.904C344.808 416.697 346.077 415.489 347.346 415.489C348.615 415.489 349.884 416.697 349.884 417.904Z" fill="white"/>
<path opacity="0.7" d="M482.747 247.544C482.747 248.751 481.478 249.959 480.209 249.959C478.939 249.959 477.67 248.751 477.67 247.544C477.67 246.336 478.939 245.129 480.209 245.129C481.478 245.129 482.747 246.336 482.747 247.544Z" fill="white"/>
<path opacity="0.7" d="M418.492 406.93C418.492 408.138 417.857 408.741 416.588 408.741C415.319 408.741 414.685 408.138 414.685 406.93C414.685 405.723 415.319 405.119 416.588 405.119C417.857 405.119 418.492 405.723 418.492 406.93Z" fill="white"/>
<path opacity="0.7" d="M606.781 346.923C606.781 348.734 604.877 350.546 602.974 350.546C601.07 350.546 599.167 348.734 599.167 346.923C599.167 345.112 601.07 343.301 602.974 343.301C605.512 343.301 606.781 344.508 606.781 346.923Z" fill="white"/>
<path opacity="0.7" d="M433.122 214.812C433.122 216.019 432.488 216.623 431.219 216.623C429.949 216.623 429.315 216.019 429.315 214.812C429.315 213.604 429.949 213 431.219 213C431.853 213 433.122 213.604 433.122 214.812Z" fill="white"/>
<path opacity="0.7" d="M409.246 18.3384C409.246 18.9421 408.612 19.5458 407.977 19.5458C407.343 19.5458 406.708 18.9421 406.708 18.3384C406.708 17.7346 407.343 17.1309 407.977 17.1309C408.612 16.5272 409.246 17.1309 409.246 18.3384Z" fill="white"/>
<path opacity="0.7" d="M403.477 143.197C403.477 143.8 402.842 144.404 402.208 144.404C401.573 144.404 400.938 143.8 400.938 143.197C400.938 142.593 401.573 141.989 402.208 141.989C402.842 141.989 403.477 142.593 403.477 143.197Z" fill="white"/>
<path opacity="0.7" d="M567.763 103.221C567.763 103.825 567.129 104.429 566.494 104.429C565.86 104.429 565.225 103.825 565.225 103.221C565.225 102.617 565.86 102.014 566.494 102.014C567.129 102.014 567.763 102.617 567.763 103.221Z" fill="white"/>
<path opacity="0.7" d="M555.683 182.411C555.683 183.014 555.049 183.618 554.414 183.618C553.78 183.618 553.145 183.014 553.145 182.411C553.145 181.807 553.78 181.203 554.414 181.203C555.049 181.203 555.683 181.807 555.683 182.411Z" fill="white"/>
<path opacity="0.7" d="M495.902 70.5283C495.902 71.132 495.267 71.7357 494.633 71.7357C493.998 71.7357 493.364 71.132 493.364 70.5283C493.364 69.9246 493.998 69.3208 494.633 69.3208C495.267 68.7171 495.902 69.3208 495.902 70.5283Z" fill="white"/>
<path opacity="0.7" d="M618.184 179.621C618.884 179.621 619.453 179.08 619.453 178.414C619.453 177.747 618.884 177.206 618.184 177.206C617.483 177.206 616.915 177.747 616.915 178.414C616.915 179.08 617.483 179.621 618.184 179.621Z" fill="white"/>
<path opacity="0.7" d="M463.976 39.2724C463.976 39.8761 463.342 40.4798 462.707 40.4798C462.073 40.4798 461.438 39.8761 461.438 39.2724C461.438 38.6686 462.073 38.0649 462.707 38.0649C463.342 38.0649 463.976 38.6686 463.976 39.2724Z" fill="white"/>
<path opacity="0.7" d="M40.8693 3.62238C40.8693 5.43357 38.9657 7.24476 37.0621 7.24476C35.1585 7.24476 33.2549 5.43357 33.2549 3.62238C33.2549 1.81118 35.1585 0 37.0621 0C39.6002 0 40.8693 1.81118 40.8693 3.62238Z" fill="white"/>
<path opacity="0.7" d="M537.004 51.4037C537.004 52.6112 535.735 53.8186 534.466 53.8186C533.197 53.8186 531.928 52.6112 531.928 51.4037C531.928 50.1962 533.197 48.9888 534.466 48.9888C535.735 48.9888 537.004 50.1962 537.004 51.4037Z" fill="white"/>
<path opacity="0.7" d="M508.297 177.506C508.297 178.714 507.028 179.921 505.759 179.921C504.49 179.921 503.221 178.714 503.221 177.506C503.221 176.299 504.49 175.091 505.759 175.091C507.663 175.091 508.297 176.299 508.297 177.506Z" fill="white"/>
<path opacity="0.7" d="M467.643 143.385C467.643 144.593 466.374 145.8 465.105 145.8C463.836 145.8 462.567 144.593 462.567 143.385C462.567 142.178 463.836 140.97 465.105 140.97C467.009 140.97 467.643 141.574 467.643 143.385Z" fill="white"/>
<path opacity="0.7" d="M367.943 97.1806C367.943 98.388 366.673 99.5955 365.404 99.5955C364.135 99.5955 362.866 98.388 362.866 97.1806C362.866 95.9731 364.135 94.7656 365.404 94.7656C366.673 94.7656 367.943 95.3694 367.943 97.1806Z" fill="white"/>
<path opacity="0.7" d="M436.581 85.6037C436.581 86.8111 435.947 87.4149 434.678 87.4149C433.408 87.4149 432.774 86.8111 432.774 85.6037C432.774 84.3962 433.408 83.7925 434.678 83.7925C435.947 83.7925 436.581 84.9999 436.581 85.6037Z" fill="white"/>
<path opacity="0.7" d="M399.418 170.163C399.418 171.371 398.783 171.974 397.514 171.974C396.245 171.974 395.61 171.371 395.61 170.163C395.61 168.956 396.245 168.352 397.514 168.352C398.148 168.352 399.418 168.956 399.418 170.163Z" fill="white"/>
<path opacity="0.7" d="M515.144 134.962C515.144 136.17 514.509 136.774 513.24 136.774C511.971 136.774 511.336 136.17 511.336 134.962C511.336 133.755 511.971 133.151 513.24 133.151C513.875 133.151 515.144 133.755 515.144 134.962Z" fill="white"/>
<path opacity="0.7" d="M356.774 160.027C356.774 161.839 354.87 163.65 352.966 163.65C351.063 163.65 349.159 161.839 349.159 160.027C349.159 158.216 351.063 156.405 352.966 156.405C355.504 156.405 356.774 158.216 356.774 160.027Z" fill="white"/>
<path opacity="0.7" d="M531.445 375.852C531.445 376.456 530.81 377.06 530.176 377.06C529.541 377.06 528.907 376.456 528.907 375.852C528.907 375.249 529.541 374.645 530.176 374.645C530.81 374.645 531.445 375.249 531.445 375.852Z" fill="white"/>
<path opacity="0.7" d="M391.621 432.765C391.621 433.972 390.986 434.576 389.717 434.576C388.448 434.576 387.813 433.972 387.813 432.765C387.813 431.557 388.448 430.954 389.717 430.954C390.986 430.954 391.621 431.557 391.621 432.765Z" fill="white"/>
<path opacity="0.7" d="M603.937 81.4892C603.937 82.0929 603.303 82.6966 602.668 82.6966C602.033 82.6966 601.399 82.0929 601.399 81.4892C601.399 80.8855 602.033 80.2817 602.668 80.2817C603.303 80.2817 603.937 80.8855 603.937 81.4892Z" fill="white"/>
<path opacity="0.7" d="M580.353 229.491C580.353 231.302 578.45 233.113 576.546 233.113C574.642 233.113 572.739 231.302 572.739 229.491C572.739 227.68 574.642 225.868 576.546 225.868C578.45 225.868 580.353 227.68 580.353 229.491Z" fill="white"/>
<path opacity="0.7" d="M618.958 175.904C618.958 177.112 617.689 178.319 616.419 178.319C615.15 178.319 613.881 177.112 613.881 175.904C613.881 174.697 615.15 173.489 616.419 173.489C618.323 173.489 618.958 174.697 618.958 175.904Z" fill="white"/>
<path opacity="0.7" d="M667.936 84.693C667.936 85.9005 666.667 87.1079 665.398 87.1079C664.129 87.1079 662.86 85.9005 662.86 84.693C662.86 83.4855 664.129 82.2781 665.398 82.2781C667.302 82.2781 667.936 83.4855 667.936 84.693Z" fill="white"/>
<path opacity="0.7" d="M637.895 245.795C637.895 247.003 636.626 248.21 635.357 248.21C634.088 248.21 632.819 247.003 632.819 245.795C632.819 244.588 634.088 243.38 635.357 243.38C636.626 243.38 637.895 244.588 637.895 245.795Z" fill="white"/>
<path opacity="0.7" d="M680.302 260.087C680.302 261.295 679.667 261.898 678.398 261.898C677.129 261.898 676.495 261.295 676.495 260.087C676.495 258.88 677.129 258.276 678.398 258.276C679.033 258.276 680.302 259.484 680.302 260.087Z" fill="white"/>
<path opacity="0.7" d="M868.614 199.736C868.614 199.133 869.249 198.529 869.883 198.529C870.518 198.529 871.152 199.133 871.152 199.736C871.152 200.34 870.518 200.944 869.883 200.944C869.249 201.547 868.614 200.944 868.614 199.736Z" fill="white"/>
<path opacity="0.7" d="M837.97 66.9726C837.97 66.3689 838.604 65.7651 839.239 65.7651C839.873 65.7651 840.508 66.3689 840.508 66.9726C840.508 67.5763 839.873 68.1801 839.239 68.1801C838.604 68.1801 837.97 68.1801 837.97 66.9726Z" fill="white"/>
<path opacity="0.7" d="M733.999 220.67C733.999 220.067 734.634 219.463 735.268 219.463C735.903 219.463 736.537 220.067 736.537 220.67C736.537 221.274 735.903 221.878 735.268 221.878C734.634 221.878 733.999 221.274 733.999 220.67Z" fill="white"/>
<path opacity="0.7" d="M758.22 72.7017C758.22 70.8905 760.123 69.0793 762.027 69.0793C763.931 69.0793 765.834 70.8905 765.834 72.7017C765.834 74.5129 763.931 76.3241 762.027 76.3241C760.123 76.3241 758.22 74.5129 758.22 72.7017Z" fill="white"/>
<path opacity="0.7" d="M868.065 119.361C868.065 118.153 869.335 116.946 870.604 116.946C871.873 116.946 873.142 118.153 873.142 119.361C873.142 120.568 871.873 121.776 870.604 121.776C869.335 121.776 868.065 120.568 868.065 119.361Z" fill="white"/>
<path opacity="0.7" d="M831.929 309.712C831.929 309.108 832.563 308.504 833.198 308.504C833.832 308.504 834.467 309.108 834.467 309.712C834.467 310.316 833.832 310.919 833.198 310.919C832.563 310.919 831.929 310.316 831.929 309.712Z" fill="white"/>
<path opacity="0.7" d="M850.009 440.084C850.009 438.877 851.278 437.669 852.547 437.669C853.816 437.669 855.085 438.877 855.085 440.084C855.085 441.292 853.816 442.499 852.547 442.499C851.278 442.499 850.009 441.896 850.009 440.084Z" fill="white"/>
<path opacity="0.7" d="M282.952 71.872C282.952 71.2683 283.587 70.6646 284.221 70.6646C284.856 70.6646 285.49 71.2683 285.49 71.872C285.49 72.4758 284.856 73.0795 284.221 73.0795C283.587 73.0795 282.952 72.4758 282.952 71.872Z" fill="white"/>
<path opacity="0.7" d="M757.622 139.716C757.622 138.509 758.891 137.301 760.16 137.301C761.429 137.301 762.698 138.509 762.698 139.716C762.698 140.924 761.429 142.131 760.16 142.131C758.891 142.131 757.622 140.924 757.622 139.716Z" fill="white"/>
<path opacity="0.7" d="M700.673 56.3954C700.673 55.1879 701.942 53.9805 703.211 53.9805C704.48 53.9805 705.749 55.1879 705.749 56.3954C705.749 57.6029 704.48 58.8103 703.211 58.8103C701.942 58.8103 700.673 57.6029 700.673 56.3954Z" fill="white"/>
<path opacity="0.7" d="M682.581 377.723C682.581 376.515 683.85 375.308 685.119 375.308C686.388 375.308 687.657 376.515 687.657 377.723C687.657 378.93 686.388 380.137 685.119 380.137C683.215 380.137 682.581 378.93 682.581 377.723Z" fill="white"/>
<path opacity="0.7" d="M693.749 314.875C693.749 313.064 695.653 311.253 697.556 311.253C699.46 311.253 701.363 313.064 701.363 314.875C701.363 316.686 699.46 318.497 697.556 318.497C695.018 317.894 693.749 316.686 693.749 314.875Z" fill="white"/>
<path opacity="0.7" d="M1166.35 329.052C1166.35 330.259 1165.71 330.863 1164.44 330.863C1163.17 330.863 1162.54 330.259 1162.54 329.052C1162.54 327.844 1163.17 327.241 1164.44 327.241C1165.08 327.241 1166.35 327.844 1166.35 329.052Z" fill="white"/>
<path opacity="0.7" d="M1126.04 322.793C1126.04 323.397 1125.4 324 1124.77 324C1124.13 324 1123.5 323.397 1123.5 322.793C1123.5 322.189 1124.13 321.585 1124.77 321.585C1125.4 321.585 1126.04 322.189 1126.04 322.793Z" fill="white"/>
<path opacity="0.7" d="M1244.29 333.066C1244.29 333.67 1243.65 334.274 1243.02 334.274C1242.38 334.274 1241.75 333.67 1241.75 333.066C1241.75 332.463 1242.38 331.859 1243.02 331.859C1243.65 331.255 1244.29 331.859 1244.29 333.066Z" fill="white"/>
<path opacity="0.7" d="M1156.69 455.557C1156.69 456.16 1156.05 456.764 1155.42 456.764C1154.78 456.764 1154.15 456.16 1154.15 455.557C1154.15 454.953 1154.78 454.349 1155.42 454.349C1156.05 454.349 1156.69 454.953 1156.69 455.557Z" fill="white"/>
<path opacity="0.7" d="M177.518 93.5632C177.518 94.1669 176.883 94.7707 176.249 94.7707C175.614 94.7707 174.979 94.1669 174.979 93.5632C174.979 92.9595 175.614 92.3557 176.249 92.3557C176.883 91.752 177.518 92.3557 177.518 93.5632Z" fill="white"/>
<path opacity="0.7" d="M1397.55 387.45C1397.55 388.054 1396.91 388.658 1396.28 388.658C1395.64 388.658 1395.01 388.054 1395.01 387.45C1395.01 386.846 1395.64 386.243 1396.28 386.243C1396.91 385.639 1397.55 386.243 1397.55 387.45Z" fill="white"/>
<path opacity="0.7" d="M1259.98 302.429C1259.98 303.033 1259.35 303.637 1258.72 303.637C1258.08 303.637 1257.45 303.033 1257.45 302.429C1257.45 301.825 1258.08 301.222 1258.72 301.222C1259.35 301.222 1259.98 301.825 1259.98 302.429Z" fill="white"/>
<path opacity="0.7" d="M1119.86 263.226C1119.86 263.83 1119.22 264.434 1118.59 264.434C1117.95 264.434 1117.32 263.83 1117.32 263.226C1117.32 262.623 1117.95 262.019 1118.59 262.019C1119.22 262.019 1119.86 262.623 1119.86 263.226Z" fill="white"/>
<path opacity="0.7" d="M1091.86 342.78C1091.86 343.988 1091.23 344.591 1089.96 344.591C1088.69 344.591 1088.06 343.988 1088.06 342.78C1088.06 341.573 1088.69 340.969 1089.96 340.969C1090.59 340.969 1091.86 341.573 1091.86 342.78Z" fill="white"/>
<path opacity="0.7" d="M10.0001 55.2503C10.0001 57.0615 8.09654 58.8727 6.19294 58.8727C4.28934 58.8727 2.38574 57.0615 2.38574 55.2503C2.38574 53.4391 4.28934 51.6279 6.19294 51.6279C8.73107 52.2317 10.0001 53.4391 10.0001 55.2503Z" fill="white"/>
<path opacity="0.7" d="M987.534 288.446C987.534 289.654 986.265 290.861 984.996 290.861C983.727 290.861 982.458 289.654 982.458 288.446C982.458 287.239 983.727 286.031 984.996 286.031C986.265 286.031 987.534 287.239 987.534 288.446Z" fill="white"/>
<path opacity="0.7" d="M1090.39 278.586C1090.39 279.794 1089.12 281.001 1087.85 281.001C1086.58 281.001 1085.32 279.794 1085.32 278.586C1085.32 277.379 1086.58 276.171 1087.85 276.171C1089.12 276.171 1090.39 277.379 1090.39 278.586Z" fill="white"/>
<path opacity="0.7" d="M1016.25 49.3481C1016.25 49.9519 1015.62 50.5556 1014.98 50.5556C1014.35 50.5556 1013.72 49.9519 1013.72 49.3481C1013.72 48.7444 1014.35 48.1407 1014.98 48.1407C1015.62 47.5369 1016.25 48.1407 1016.25 49.3481Z" fill="white"/>
<path opacity="0.7" d="M1276.75 117.674C1276.75 118.277 1276.11 118.881 1275.48 118.881C1274.84 118.881 1274.21 118.277 1274.21 117.674C1274.21 117.07 1274.84 116.466 1275.48 116.466C1276.11 115.862 1276.75 116.466 1276.75 117.674Z" fill="white"/>
<path opacity="0.7" d="M1174.78 134.231C1174.78 134.835 1174.14 135.438 1173.51 135.438C1172.87 135.438 1172.24 134.835 1172.24 134.231C1172.24 133.627 1172.87 133.023 1173.51 133.023C1174.14 133.023 1174.78 133.627 1174.78 134.231Z" fill="white"/>
<path opacity="0.7" d="M1162.69 213.42C1162.69 214.024 1162.06 214.628 1161.42 214.628C1160.79 214.628 1160.16 214.024 1160.16 213.42C1160.16 212.817 1160.79 212.213 1161.42 212.213C1162.06 212.213 1162.69 212.817 1162.69 213.42Z" fill="white"/>
<path opacity="0.7" d="M1102.91 101.538C1102.91 102.142 1102.28 102.746 1101.64 102.746C1101.01 102.746 1100.37 102.142 1100.37 101.538C1100.37 100.934 1101.01 100.331 1101.64 100.331C1102.28 99.7269 1102.91 100.331 1102.91 101.538Z" fill="white"/>
<path opacity="0.7" d="M1226.46 209.423C1226.46 210.027 1225.83 210.631 1225.19 210.631C1224.56 210.631 1223.92 210.027 1223.92 209.423C1223.92 208.82 1224.56 208.216 1225.19 208.216C1225.83 208.216 1226.46 208.82 1226.46 209.423Z" fill="white"/>
<path opacity="0.7" d="M1070.99 70.2821C1070.99 70.8859 1070.35 71.4896 1069.72 71.4896C1069.08 71.4896 1068.45 70.8859 1068.45 70.2821C1068.45 69.6784 1069.08 69.0747 1069.72 69.0747C1070.35 69.0747 1070.99 69.6784 1070.99 70.2821Z" fill="white"/>
<path opacity="0.7" d="M1144.65 82.4452C1144.65 83.6527 1143.38 84.8601 1142.11 84.8601C1140.84 84.8601 1139.57 83.6527 1139.57 82.4452C1139.57 81.2377 1140.84 80.0303 1142.11 80.0303C1143.38 80.0303 1144.65 81.2377 1144.65 82.4452Z" fill="white"/>
<path opacity="0.7" d="M1115.94 208.549C1115.94 209.756 1114.68 210.964 1113.41 210.964C1112.14 210.964 1110.87 209.756 1110.87 208.549C1110.87 207.341 1112.14 206.134 1113.41 206.134C1114.68 206.134 1115.94 207.341 1115.94 208.549Z" fill="white"/>
<path opacity="0.7" d="M1075.29 174.428C1075.29 175.635 1074.02 176.843 1072.75 176.843C1071.48 176.843 1070.21 175.635 1070.21 174.428C1070.21 173.22 1071.48 172.013 1072.75 172.013C1074.02 172.013 1075.29 172.617 1075.29 174.428Z" fill="white"/>
<path opacity="0.7" d="M975.581 128.222C975.581 129.43 974.312 130.637 973.043 130.637C971.774 130.637 970.505 129.43 970.505 128.222C970.505 127.015 971.774 125.807 973.043 125.807C974.312 125.807 975.581 126.411 975.581 128.222Z" fill="white"/>
<path opacity="0.7" d="M1043.6 116.613C1043.6 117.821 1042.96 118.425 1041.69 118.425C1040.42 118.425 1039.79 117.821 1039.79 116.613C1039.79 115.406 1040.42 114.802 1041.69 114.802C1042.96 114.802 1043.6 116.01 1043.6 116.613Z" fill="white"/>
<path opacity="0.7" d="M1144.28 360C1144.28 360.603 1143.64 361.207 1143.01 361.207C1142.37 361.207 1141.74 360.603 1141.74 360C1141.74 359.396 1142.37 358.792 1143.01 358.792C1143.64 358.189 1144.28 358.792 1144.28 360Z" fill="white"/>
<path opacity="0.7" d="M766.691 384.783C766.691 385.991 765.421 387.198 764.152 387.198C762.883 387.198 761.614 385.991 761.614 384.783C761.614 383.576 762.883 382.368 764.152 382.368C765.421 382.368 766.691 382.972 766.691 384.783Z" fill="white"/>
<path opacity="0.7" d="M1257.22 464.321C1257.22 464.924 1256.59 465.528 1255.95 465.528C1255.32 465.528 1254.68 464.924 1254.68 464.321C1254.68 463.717 1255.32 463.113 1255.95 463.113C1256.59 463.113 1257.22 463.717 1257.22 464.321Z" fill="white"/>
<path opacity="0.7" d="M999.263 463.806C999.263 465.014 998.629 465.618 997.36 465.618C996.091 465.618 995.456 465.014 995.456 463.806C995.456 462.599 996.091 461.995 997.36 461.995C998.629 461.995 999.263 462.599 999.263 463.806Z" fill="white"/>
<path opacity="0.7" d="M1392.63 192.518C1392.63 193.122 1392 193.726 1391.37 193.726C1390.73 193.726 1390.1 193.122 1390.1 192.518C1390.1 191.914 1390.73 191.311 1391.37 191.311C1392 190.707 1392.63 191.311 1392.63 192.518Z" fill="white"/>
<path opacity="0.7" d="M1421.93 439.482C1421.93 440.085 1421.3 440.689 1420.66 440.689C1420.03 440.689 1419.4 440.085 1419.4 439.482C1419.4 438.878 1420.03 438.274 1420.66 438.274C1421.3 438.274 1421.93 438.878 1421.93 439.482Z" fill="white"/>
<path opacity="0.7" d="M1296.17 336.861C1296.17 338.068 1294.9 339.276 1293.63 339.276C1292.37 339.276 1291.1 338.068 1291.1 336.861C1291.1 335.654 1292.37 334.446 1293.63 334.446C1294.9 334.446 1296.17 335.654 1296.17 336.861Z" fill="white"/>
<path opacity="0.7" d="M1323.98 305.635C1323.98 306.842 1322.71 308.05 1321.45 308.05C1320.18 308.05 1318.91 306.842 1318.91 305.635C1318.91 304.427 1320.18 303.22 1321.45 303.22C1323.35 303.22 1323.98 304.427 1323.98 305.635Z" fill="white"/>
<path opacity="0.7" d="M1293.98 466.134C1293.98 467.342 1292.71 468.549 1291.44 468.549C1290.17 468.549 1288.9 467.342 1288.9 466.134C1288.9 464.927 1290.17 463.719 1291.44 463.719C1292.71 463.719 1293.98 464.927 1293.98 466.134Z" fill="white"/>
<path opacity="0.7" d="M1426.84 295.774C1426.84 296.981 1425.58 298.188 1424.31 298.188C1423.04 298.188 1421.77 296.981 1421.77 295.774C1421.77 294.566 1423.04 293.359 1424.31 293.359C1426.21 293.359 1426.84 294.566 1426.84 295.774Z" fill="white"/>
<path opacity="0.7" d="M1362.59 455.16C1362.59 456.368 1361.95 456.971 1360.68 456.971C1359.41 456.971 1358.78 456.368 1358.78 455.16C1358.78 453.953 1359.41 453.349 1360.68 453.349C1361.95 453.349 1362.59 453.953 1362.59 455.16Z" fill="white"/>
<path opacity="0.7" d="M1377.22 263.042C1377.22 264.249 1376.59 264.853 1375.32 264.853C1374.05 264.853 1373.41 264.249 1373.41 263.042C1373.41 261.834 1374.05 261.23 1375.32 261.23C1376.59 261.23 1377.22 261.834 1377.22 263.042Z" fill="white"/>
<path opacity="0.7" d="M1353.34 66.5683C1353.34 67.1721 1352.71 67.7758 1352.07 67.7758C1351.44 67.7758 1350.8 67.1721 1350.8 66.5683C1350.8 65.9646 1351.44 65.3609 1352.07 65.3609C1352.71 64.7571 1353.34 65.3609 1353.34 66.5683Z" fill="white"/>
<path opacity="0.7" d="M1440 118.758C1440 119.362 1439.36 119.966 1438.73 119.966C1438.09 119.966 1437.46 119.362 1437.46 118.758C1437.46 118.155 1438.09 117.551 1438.73 117.551C1439.36 116.947 1440 117.551 1440 118.758Z" fill="white"/>
<path opacity="0.7" d="M1408.07 87.5023C1408.07 88.1061 1407.44 88.7098 1406.81 88.7098C1406.17 88.7098 1405.54 88.1061 1405.54 87.5023C1405.54 86.8986 1406.17 86.2949 1406.81 86.2949C1407.44 86.2949 1408.07 86.8986 1408.07 87.5023Z" fill="white"/>
<path opacity="0.7" d="M608.935 399.029C608.935 400.84 607.032 402.651 605.128 402.651C603.224 402.651 601.321 400.84 601.321 399.029C601.321 397.218 603.224 395.407 605.128 395.407C607.666 396.01 608.935 397.218 608.935 399.029Z" fill="white"/>
<g opacity="0.7">
<path opacity="0.7" d="M694.921 133.38L695.555 146.058L709.515 147.266L696.19 147.87L694.921 161.152L693.652 147.87L680.327 147.266L693.652 146.058L694.921 133.38Z" fill="white"/>
<path opacity="0.7" d="M700.631 141.228L696.189 146.662L700.631 152.699L694.92 147.869L688.575 153.303L693.651 147.266L688.575 141.228L694.92 146.058L700.631 141.228Z" fill="white"/>
</g>
<g opacity="0.7">
<path opacity="0.7" d="M694.921 133.38L695.555 146.058L709.515 147.266L696.19 147.87L694.921 161.152L693.652 147.87L680.327 147.266L693.652 146.058L694.921 133.38Z" fill="white"/>
<path opacity="0.7" d="M700.631 141.228L696.189 146.662L700.631 152.699L694.92 147.869L688.575 153.303L693.651 147.266L688.575 141.228L694.92 146.058L700.631 141.228Z" fill="white"/>
</g>
<g opacity="0.7">
<path opacity="0.7" d="M694.921 133.38L695.555 146.058L709.515 147.266L696.19 147.87L694.921 161.152L693.652 147.87L680.327 147.266L693.652 146.058L694.921 133.38Z" fill="white"/>
<path opacity="0.7" d="M700.631 141.228L696.189 146.662L700.631 152.699L694.92 147.869L688.575 153.303L693.651 147.266L688.575 141.228L694.92 146.058L700.631 141.228Z" fill="white"/>
</g>
<g opacity="0.7">
<path opacity="0.7" d="M694.921 133.38L695.555 146.058L709.515 147.266L696.19 147.87L694.921 161.152L693.652 147.87L680.327 147.266L693.652 146.058L694.921 133.38Z" fill="white"/>
<path opacity="0.7" d="M700.631 141.228L696.189 146.662L700.631 152.699L694.92 147.869L688.575 153.303L693.651 147.266L688.575 141.228L694.92 146.058L700.631 141.228Z" fill="white"/>
</g>
<g opacity="0.7">
<path opacity="0.7" d="M694.921 133.38L695.555 146.058L709.515 147.266L696.19 147.87L694.921 161.152L693.652 147.87L680.327 147.266L693.652 146.058L694.921 133.38Z" fill="white"/>
<path opacity="0.7" d="M700.631 141.228L696.189 146.662L700.631 152.699L694.92 147.869L688.575 153.303L693.651 147.266L688.575 141.228L694.92 146.058L700.631 141.228Z" fill="white"/>
</g>
<g opacity="0.7">
<path opacity="0.7" d="M694.921 133.38L695.555 146.058L709.515 147.266L696.19 147.87L694.921 161.152L693.652 147.87L680.327 147.266L693.652 146.058L694.921 133.38Z" fill="white"/>
<path opacity="0.7" d="M700.631 141.228L696.189 146.662L700.631 152.699L694.92 147.869L688.575 153.303L693.651 147.266L688.575 141.228L694.92 146.058L700.631 141.228Z" fill="white"/>
</g>
<g opacity="0.7">
<path opacity="0.7" d="M694.921 133.38L695.555 146.058L709.515 147.266L696.19 147.87L694.921 161.152L693.652 147.87L680.327 147.266L693.652 146.058L694.921 133.38Z" fill="white"/>
<path opacity="0.7" d="M700.631 141.228L696.189 146.662L700.631 152.699L694.92 147.869L688.575 153.303L693.651 147.266L688.575 141.228L694.92 146.058L700.631 141.228Z" fill="white"/>
</g>
<g opacity="0.7">
<path opacity="0.7" d="M552.548 100.11L553.817 112.788L567.142 113.996L553.817 114.599L552.548 127.881L551.279 114.599L537.954 113.996L551.279 112.788L552.548 100.11Z" fill="white"/>
<path opacity="0.7" d="M558.26 107.959L553.818 113.996L558.26 119.43L552.549 115.204L546.204 120.034L551.914 113.996L546.204 108.563L552.549 112.789L558.26 107.959Z" fill="white"/>
</g>
<g opacity="0.7">
<path opacity="0.7" d="M625.924 437.591L626.559 446.044L636.077 447.251H626.559L625.924 456.911L625.29 447.251H615.772L625.29 446.044L625.924 437.591Z" fill="white"/>
<path opacity="0.7" d="M629.734 443.024L626.561 446.646L629.734 450.872L625.927 447.25L621.485 450.872L625.292 446.646L621.485 443.024L625.927 446.043L629.734 443.024Z" fill="white"/>
</g>
<g opacity="0.7">
<path opacity="0.7" d="M329.468 71.1741L330.103 79.6263L339.62 80.8337L330.737 80.8337L329.468 90.4934L328.833 80.8337H319.315L328.833 79.6263L329.468 71.1741Z" fill="white"/>
<path opacity="0.7" d="M333.912 76.6067L330.739 80.2291L333.912 84.4552L329.47 81.4365L325.028 84.4552L328.835 80.8328L325.028 76.6067L329.47 79.6253L333.912 76.6067Z" fill="white"/>
</g>
<g opacity="0.7">
<path opacity="0.7" d="M919.279 91.6301L919.913 100.082L929.431 101.29L919.913 101.29L919.279 110.949L918.644 101.29H909.126L918.644 100.082L919.279 91.6301Z" fill="white"/>
<path opacity="0.7" d="M923.722 97.0635L919.915 100.686L923.722 104.912L919.281 101.893L914.839 104.912L918.646 101.29L914.839 97.0635L919.281 100.082L923.722 97.0635Z" fill="white"/>
</g>
<g opacity="0.7">
<path opacity="0.7" d="M1172.57 430.456L1173.84 442.53L1187.16 444.341H1173.84L1172.57 458.227L1171.3 444.341H1157.98L1171.3 442.53L1172.57 430.456Z" fill="white"/>
<path opacity="0.7" d="M1178.28 437.7L1173.84 443.737L1178.28 449.775L1172.57 444.945L1166.22 449.775L1171.93 443.737L1166.22 438.304L1172.57 442.53L1178.28 437.7Z" fill="white"/>
</g>
<g opacity="0.7">
<path opacity="0.7" d="M1172.57 430.456L1173.84 442.53L1187.16 444.341H1173.84L1172.57 458.227L1171.3 444.341H1157.98L1171.3 442.53L1172.57 430.456Z" fill="white"/>
<path opacity="0.7" d="M1178.28 437.7L1173.84 443.737L1178.28 449.775L1172.57 444.945L1166.22 449.775L1171.93 443.737L1166.22 438.304L1172.57 442.53L1178.28 437.7Z" fill="white"/>
</g>
<g opacity="0.7">
<path opacity="0.7" d="M1172.57 430.456L1173.84 442.53L1187.16 444.341H1173.84L1172.57 458.227L1171.3 444.341H1157.98L1171.3 442.53L1172.57 430.456Z" fill="white"/>
<path opacity="0.7" d="M1178.28 437.7L1173.84 443.737L1178.28 449.775L1172.57 444.945L1166.22 449.775L1171.93 443.737L1166.22 438.304L1172.57 442.53L1178.28 437.7Z" fill="white"/>
</g>
<g opacity="0.7">
<path opacity="0.7" d="M1172.57 430.456L1173.84 442.53L1187.16 444.341H1173.84L1172.57 458.227L1171.3 444.341H1157.98L1171.3 442.53L1172.57 430.456Z" fill="white"/>
<path opacity="0.7" d="M1178.28 437.7L1173.84 443.737L1178.28 449.775L1172.57 444.945L1166.22 449.775L1171.93 443.737L1166.22 438.304L1172.57 442.53L1178.28 437.7Z" fill="white"/>
</g>
<g opacity="0.7">
<path opacity="0.7" d="M1172.57 430.456L1173.84 442.53L1187.16 444.341H1173.84L1172.57 458.227L1171.3 444.341H1157.98L1171.3 442.53L1172.57 430.456Z" fill="white"/>
<path opacity="0.7" d="M1178.28 437.7L1173.84 443.737L1178.28 449.775L1172.57 444.945L1166.22 449.775L1171.93 443.737L1166.22 438.304L1172.57 442.53L1178.28 437.7Z" fill="white"/>
</g>
<g opacity="0.7">
<path opacity="0.7" d="M1172.57 430.456L1173.84 442.53L1187.16 444.341H1173.84L1172.57 458.227L1171.3 444.341H1157.98L1171.3 442.53L1172.57 430.456Z" fill="white"/>
<path opacity="0.7" d="M1178.28 437.7L1173.84 443.737L1178.28 449.775L1172.57 444.945L1166.22 449.775L1171.93 443.737L1166.22 438.304L1172.57 442.53L1178.28 437.7Z" fill="white"/>
</g>
<g opacity="0.7">
<path opacity="0.7" d="M1172.57 430.456L1173.84 442.53L1187.16 444.341H1173.84L1172.57 458.227L1171.3 444.341H1157.98L1171.3 442.53L1172.57 430.456Z" fill="white"/>
<path opacity="0.7" d="M1178.28 437.7L1173.84 443.737L1178.28 449.775L1172.57 444.945L1166.22 449.775L1171.93 443.737L1166.22 438.304L1172.57 442.53L1178.28 437.7Z" fill="white"/>
</g>
<g opacity="0.7">
<path opacity="0.7" d="M1282.43 119.857L1283.07 128.309L1292.59 129.517H1283.07L1282.43 139.177L1281.8 129.517H1272.28L1281.8 128.309L1282.43 119.857Z" fill="white"/>
<path opacity="0.7" d="M1286.24 125.291L1283.07 128.913L1286.24 133.139L1282.43 130.121L1277.99 133.139L1281.8 129.517L1277.99 125.291L1282.43 128.309L1286.24 125.291Z" fill="white"/>
</g>
<g opacity="0.7">
<path opacity="0.7" d="M1069.01 310.286L1069.64 319.342L1079.16 319.945L1069.64 320.549L1069.01 329.605L1068.37 320.549L1058.85 319.945L1068.37 319.342L1069.01 310.286Z" fill="white"/>
<path opacity="0.7" d="M1072.81 315.719L1069.64 319.945L1072.81 324.171L1069.01 320.549L1064.57 324.171L1068.37 319.945L1064.57 316.323L1069.01 319.341L1072.81 315.719Z" fill="white"/>
</g>
<g opacity="0.7">
<path opacity="0.7" d="M931.519 359.489L932.153 368.545L941.671 369.149L932.153 369.753L931.519 378.809L930.884 369.753L921.366 369.149L930.884 368.545L931.519 359.489Z" fill="white"/>
<path opacity="0.7" d="M935.328 364.923L932.155 369.149L935.328 373.375L931.521 369.752L927.079 373.375L930.886 369.149L927.079 365.526L931.521 368.545L935.328 364.923Z" fill="white"/>
</g>
<path opacity="0.7" d="M222.252 511.634C222.252 512.841 221.617 513.445 220.348 513.445C219.079 513.445 218.444 512.841 218.444 511.634C218.444 510.426 219.079 509.823 220.348 509.823C220.982 509.823 222.252 510.426 222.252 511.634Z" fill="white"/>
<path opacity="0.7" d="M300.191 515.647C300.191 516.251 299.557 516.854 298.922 516.854C298.288 516.854 297.653 516.251 297.653 515.647C297.653 515.043 298.288 514.439 298.922 514.439C299.557 513.836 300.191 514.439 300.191 515.647Z" fill="white"/>
<path opacity="0.7" d="M1023.09 576.157C1023.09 576.76 1022.46 577.364 1021.82 577.364C1021.19 577.364 1020.56 576.76 1020.56 576.157C1020.56 575.553 1021.19 574.949 1021.82 574.949C1022.46 574.949 1023.09 575.553 1023.09 576.157Z" fill="white"/>
<path opacity="0.7" d="M315.891 485.01C315.891 485.614 315.256 486.217 314.622 486.217C313.987 486.217 313.353 485.614 313.353 485.01C313.353 484.406 313.987 483.802 314.622 483.802C315.256 483.802 315.891 484.406 315.891 485.01Z" fill="white"/>
<path opacity="0.7" d="M376.38 561.796C376.38 563.004 375.111 564.211 373.842 564.211C372.573 564.211 371.304 563.004 371.304 561.796C371.304 560.589 372.573 559.381 373.842 559.381C375.745 559.381 376.38 560.589 376.38 561.796Z" fill="white"/>
<path opacity="0.7" d="M146.298 461.167C146.298 462.374 145.029 463.582 143.76 463.582C142.491 463.582 141.222 462.374 141.222 461.167C141.222 459.959 142.491 458.752 143.76 458.752C145.029 458.752 146.298 459.959 146.298 461.167Z" fill="white"/>
<path opacity="0.7" d="M200.182 542.58C200.182 543.184 199.547 543.788 198.913 543.788C198.278 543.788 197.644 543.184 197.644 542.58C197.644 541.977 198.278 541.373 198.913 541.373C199.547 540.769 200.182 541.373 200.182 542.58Z" fill="white"/>
<path opacity="0.7" d="M892.225 541.659C892.225 542.263 891.59 542.867 890.956 542.867C890.321 542.867 889.687 542.263 889.687 541.659C889.687 541.056 890.321 540.452 890.956 540.452C891.59 540.452 892.225 541.056 892.225 541.659Z" fill="white"/>
<path opacity="0.7" d="M856.585 497.453C856.585 498.66 855.316 499.867 854.047 499.867C852.778 499.867 851.509 498.66 851.509 497.453C851.509 496.245 852.778 495.038 854.047 495.038C855.316 495.038 856.585 496.245 856.585 497.453Z" fill="white"/>
<path opacity="0.7" d="M794.173 477.335C794.173 478.542 792.904 479.75 791.635 479.75C790.366 479.75 789.097 478.542 789.097 477.335C789.097 476.127 790.366 474.92 791.635 474.92C792.904 474.92 794.173 476.127 794.173 477.335Z" fill="white"/>
<path opacity="0.7" d="M755.928 569.763C755.928 570.367 755.293 570.971 754.659 570.971C754.024 570.971 753.39 570.367 753.39 569.763C753.39 569.16 754.024 568.556 754.659 568.556C755.293 568.556 755.928 569.16 755.928 569.763Z" fill="white"/>
<path opacity="0.7" d="M562.441 530.124C562.441 531.935 560.538 533.746 558.634 533.746C556.73 533.746 554.827 531.935 554.827 530.124C554.827 528.312 556.73 526.501 558.634 526.501C560.538 527.105 562.441 528.312 562.441 530.124Z" fill="white"/>
<path opacity="0.7" d="M518.388 522.561C518.388 523.165 517.754 523.769 517.119 523.769C516.485 523.769 515.85 523.165 515.85 522.561C515.85 521.958 516.485 521.354 517.119 521.354C517.754 521.354 518.388 521.958 518.388 522.561Z" fill="white"/>
<path opacity="0.7" d="M445.255 591.377C445.255 591.981 444.621 592.584 443.986 592.584C443.352 592.584 442.717 591.981 442.717 591.377C442.717 590.773 443.352 590.169 443.986 590.169C444.621 589.566 445.255 590.169 445.255 591.377Z" fill="white"/>
<path opacity="0.7" d="M652.976 502.23C652.976 502.834 652.342 503.438 651.707 503.438C651.073 503.438 650.438 502.834 650.438 502.23C650.438 501.626 651.073 501.023 651.707 501.023C652.342 501.023 652.976 501.626 652.976 502.23Z" fill="white"/>
<path opacity="0.7" d="M512.211 462.996C512.211 463.599 511.576 464.203 510.941 464.203C510.307 464.203 509.672 463.599 509.672 462.996C509.672 462.392 510.307 461.788 510.941 461.788C511.576 461.788 512.211 462.392 512.211 462.996Z" fill="white"/>
<path opacity="0.7" d="M352.079 519.443C352.079 520.65 350.81 521.857 349.541 521.857C348.272 521.857 347.003 520.65 347.003 519.443C347.003 518.235 348.272 517.028 349.541 517.028C350.81 517.028 352.079 518.235 352.079 519.443Z" fill="white"/>
<path opacity="0.7" d="M379.89 488.215C379.89 489.423 378.621 490.63 377.352 490.63C376.083 490.63 374.813 489.423 374.813 488.215C374.813 487.008 376.083 485.801 377.352 485.801C378.621 485.801 379.89 487.008 379.89 488.215Z" fill="white"/>
<path opacity="0.7" d="M482.747 478.354C482.747 479.562 481.478 480.769 480.209 480.769C478.939 480.769 477.67 479.562 477.67 478.354C477.67 477.147 478.939 475.939 480.209 475.939C481.478 475.939 482.747 477.147 482.747 478.354Z" fill="white"/>
<path opacity="0.7" d="M606.781 577.734C606.781 579.545 604.877 581.356 602.974 581.356C601.07 581.356 599.167 579.545 599.167 577.734C599.167 575.923 601.07 574.111 602.974 574.111C605.512 574.111 606.781 575.319 606.781 577.734Z" fill="white"/>
<path opacity="0.7" d="M580.353 460.301C580.353 462.113 578.45 463.924 576.546 463.924C574.642 463.924 572.739 462.113 572.739 460.301C572.739 458.49 574.642 456.679 576.546 456.679C578.45 456.679 580.353 458.49 580.353 460.301Z" fill="white"/>
<path opacity="0.7" d="M637.895 476.606C637.895 477.813 636.626 479.021 635.357 479.021C634.088 479.021 632.819 477.813 632.819 476.606C632.819 475.398 634.088 474.191 635.357 474.191C636.626 474.191 637.895 475.398 637.895 476.606Z" fill="white"/>
<path opacity="0.7" d="M680.302 490.897C680.302 492.105 679.667 492.708 678.398 492.708C677.129 492.708 676.495 492.105 676.495 490.897C676.495 489.69 677.129 489.086 678.398 489.086C679.033 489.086 680.302 490.293 680.302 490.897Z" fill="white"/>
<path opacity="0.7" d="M733.999 451.481C733.999 450.877 734.634 450.273 735.268 450.273C735.903 450.273 736.537 450.877 736.537 451.481C736.537 452.085 735.903 452.688 735.268 452.688C734.634 452.688 733.999 452.085 733.999 451.481Z" fill="white"/>
<path opacity="0.7" d="M831.929 540.522C831.929 539.919 832.563 539.315 833.198 539.315C833.832 539.315 834.467 539.919 834.467 540.522C834.467 541.126 833.832 541.73 833.198 541.73C832.563 541.73 831.929 541.126 831.929 540.522Z" fill="white"/>
<path opacity="0.7" d="M693.749 545.686C693.749 543.875 695.653 542.063 697.556 542.063C699.46 542.063 701.363 543.875 701.363 545.686C701.363 547.497 699.46 549.308 697.556 549.308C695.018 548.705 693.749 547.497 693.749 545.686Z" fill="white"/>
<path opacity="0.7" d="M1166.35 559.863C1166.35 561.07 1165.71 561.674 1164.44 561.674C1163.17 561.674 1162.54 561.07 1162.54 559.863C1162.54 558.655 1163.17 558.052 1164.44 558.052C1165.08 558.052 1166.35 558.655 1166.35 559.863Z" fill="white"/>
<path opacity="0.7" d="M1126.04 553.604C1126.04 554.207 1125.4 554.811 1124.77 554.811C1124.13 554.811 1123.5 554.207 1123.5 553.604C1123.5 553 1124.13 552.396 1124.77 552.396C1125.4 552.396 1126.04 553 1126.04 553.604Z" fill="white"/>
<path opacity="0.7" d="M1244.29 563.877C1244.29 564.481 1243.65 565.084 1243.02 565.084C1242.38 565.084 1241.75 564.481 1241.75 563.877C1241.75 563.273 1242.38 562.669 1243.02 562.669C1243.65 562.066 1244.29 562.669 1244.29 563.877Z" fill="white"/>
<path opacity="0.7" d="M1259.98 533.24C1259.98 533.844 1259.35 534.447 1258.72 534.447C1258.08 534.447 1257.45 533.844 1257.45 533.24C1257.45 532.636 1258.08 532.032 1258.72 532.032C1259.35 532.032 1259.98 532.636 1259.98 533.24Z" fill="white"/>
<path opacity="0.7" d="M1119.86 494.037C1119.86 494.641 1119.22 495.244 1118.59 495.244C1117.95 495.244 1117.32 494.641 1117.32 494.037C1117.32 493.433 1117.95 492.83 1118.59 492.83C1119.22 492.83 1119.86 493.433 1119.86 494.037Z" fill="white"/>
<path opacity="0.7" d="M1091.86 573.591C1091.86 574.798 1091.23 575.402 1089.96 575.402C1088.69 575.402 1088.06 574.798 1088.06 573.591C1088.06 572.383 1088.69 571.78 1089.96 571.78C1090.59 571.78 1091.86 572.383 1091.86 573.591Z" fill="white"/>
<path opacity="0.7" d="M987.534 519.257C987.534 520.464 986.265 521.672 984.996 521.672C983.727 521.672 982.458 520.464 982.458 519.257C982.458 518.05 983.727 516.842 984.996 516.842C986.265 516.842 987.534 518.05 987.534 519.257Z" fill="white"/>
<path opacity="0.7" d="M1090.39 509.397C1090.39 510.604 1089.12 511.812 1087.85 511.812C1086.58 511.812 1085.32 510.604 1085.32 509.397C1085.32 508.189 1086.58 506.982 1087.85 506.982C1089.12 506.982 1090.39 508.189 1090.39 509.397Z" fill="white"/>
<path opacity="0.7" d="M1144.28 590.811C1144.28 591.415 1143.64 592.019 1143.01 592.019C1142.37 592.019 1141.74 591.415 1141.74 590.811C1141.74 590.208 1142.37 589.604 1143.01 589.604C1143.64 589 1144.28 589.604 1144.28 590.811Z" fill="white"/>
<path opacity="0.7" d="M1296.17 567.672C1296.17 568.879 1294.9 570.086 1293.63 570.086C1292.37 570.086 1291.1 568.879 1291.1 567.672C1291.1 566.464 1292.37 565.257 1293.63 565.257C1294.9 565.257 1296.17 566.464 1296.17 567.672Z" fill="white"/>
<path opacity="0.7" d="M1323.98 536.445C1323.98 537.652 1322.71 538.86 1321.45 538.86C1320.18 538.86 1318.91 537.652 1318.91 536.445C1318.91 535.237 1320.18 534.03 1321.45 534.03C1323.35 534.03 1323.98 535.237 1323.98 536.445Z" fill="white"/>
<path opacity="0.7" d="M1426.84 526.584C1426.84 527.792 1425.58 528.999 1424.31 528.999C1423.04 528.999 1421.77 527.792 1421.77 526.584C1421.77 525.377 1423.04 524.169 1424.31 524.169C1426.21 524.169 1426.84 525.377 1426.84 526.584Z" fill="white"/>
<path opacity="0.7" d="M1377.22 493.852C1377.22 495.06 1376.59 495.663 1375.32 495.663C1374.05 495.663 1373.41 495.06 1373.41 493.852C1373.41 492.645 1374.05 492.041 1375.32 492.041C1376.59 492.041 1377.22 492.645 1377.22 493.852Z" fill="white"/>
<g opacity="0.7">
<path opacity="0.7" d="M1069.01 541.096L1069.64 550.152L1079.16 550.756L1069.64 551.36L1069.01 560.416L1068.37 551.36L1058.85 550.756L1068.37 550.152L1069.01 541.096Z" fill="white"/>
<path opacity="0.7" d="M1072.81 546.53L1069.64 550.756L1072.81 554.982L1069.01 551.359L1064.57 554.982L1068.37 550.756L1064.57 547.133L1069.01 550.152L1072.81 546.53Z" fill="white"/>
</g>
<g opacity="0.7">
<path opacity="0.7" d="M931.519 590.3L932.153 599.356L941.671 599.959L932.153 600.563L931.519 609.619L930.884 600.563L921.366 599.959L930.884 599.356L931.519 590.3Z" fill="white"/>
<path opacity="0.7" d="M935.328 595.732L932.155 599.958L935.328 604.185L931.521 600.562L927.079 604.185L930.886 599.958L927.079 596.336L931.521 599.355L935.328 595.732Z" fill="white"/>
</g>
<g opacity="0.7">
<path opacity="0.7" d="M1002.62 123.701L1003.89 132.153L1012.78 133.36H1003.89L1002.62 143.02L1001.99 133.36H992.472L1001.99 132.153L1002.62 123.701Z" fill="white"/>
<path opacity="0.7" d="M1007.07 129.134L1003.9 132.756L1007.07 136.983L1003.26 133.964L998.185 136.983L1001.99 133.36L998.185 129.134L1002.63 132.153L1007.07 129.134Z" fill="white"/>
</g>
</svg>
